<?xml version="1.0" standalone="no"?>
<!DOCTYPE svg PUBLIC "-//W3C//DTD SVG 1.1//EN" "http://www.w3.org/Graphics/SVG/1.1/DTD/svg11.dtd" >
<svg xmlns="http://www.w3.org/2000/svg">
<metadata>Generated by IcoMoon</metadata>
<defs>
<font id="isotope" horiz-adv-x="1024">
<font-face units-per-em="1024" ascent="960" descent="-64" />
<missing-glyph horiz-adv-x="1024" />
<glyph unicode="&#x20;" horiz-adv-x="512" d="" />
<glyph unicode="&#xe900;" glyph-name="header" d="M645.14 832v-319.12h-266.28v319.12h-129.76v-768h129.76v319.12h266.28v-319.12h129.76v768z" />
<glyph unicode="&#xe901;" glyph-name="bold" d="M706.74 486.020c32.6 37.22 52.16 86.060 51.6 139.52-1.16 114.86-96.7 206.46-211.56 206.46h-312.7v-768h312.32c132.52 0 243.9 108.42 243.52 240.94-0.22 72.34-32.4 137.18-83.18 181.080zM621.58 623.34c0-43.6-35.34-78.9-78.9-78.9h-171.84v157.8h171.84c43.56 0 78.9-35.3 78.9-78.9zM542.68 193.76h-171.84v220.92h171.84c61.020 0 110.46-49.44 110.46-110.46 0.020-61.020-49.44-110.46-110.46-110.46z" />
<glyph unicode="&#xe902;" glyph-name="italic" d="M448.080 64h-141.8l269.64 768h141.8z" />
<glyph unicode="&#xe903;" glyph-name="strike" d="M640.46 518.94c-30.72 15.46-65.26 24.52-101.76 25.42v0.080h-78.9c-43.58 0-78.9 35.34-78.9 78.9 0 43.6 35.32 78.9 78.9 78.9h223.24v129.76h-223.26c-115.28 0-208.66-93.42-208.66-208.66 0-71.72 36.16-134.94 91.24-172.5 13.3-9.080 27.66-16.62 42.92-22.44 23.14-8.88 48.26-13.72 74.48-13.72h72.88c61.020 0 110.46-49.44 110.46-110.46 0-60.98-49.44-110.46-110.46-110.46h-237.52v-129.76l243.56 0.080c129.86 3.2 234.18 109.48 234.18 240.14 0.020 93.92-53.86 175.24-132.4 214.72z" />
<glyph unicode="&#xe904;" glyph-name="list-ordered" d="M398.080 530.52h497.92v-165.040h-497.92v165.040zM398.080 832h497.92v-165.040h-497.92v165.040zM398.080 229.040h497.92v-165.040h-497.92v165.040zM173.88 779.62l-27.62-16.82-18.26 32.2 55.26 37h37.24v-165.040h-46.6v112.66zM130.82 402.54l60.2 43.46c17 12.28 21.020 19.6 21.020 28.1 0 8.98-7.8 14.88-18.42 14.88-13.94 0-24.8-6.62-37.3-19.12l-28.34 28.56c17.94 21.26 39.9 32.12 66.82 32.12 38.48 0 64.46-23.14 64.46-54.54 0-21.24-8.5-37.78-37.3-56.2l-21.020-13.46h59.74v-40.84h-129.86v37.040zM128 90.42l25.26 29.9c11.82-11.12 26.66-16.22 40.34-16.22 14.38 0 21.56 5.34 21.56 12.52 0 7.64-5.34 11.82-24.34 11.6l-19.24-0.24v37.56h19c14.84 0 21.56 3.94 21.56 11.12 0 7.88-8.12 12.28-21.1 12.28-13.22 0-24.58-6.26-34.78-15.76l-24.8 27.58c13.9 16 33.84 28.28 64.44 28.28 39.4 0 62.12-18.78 62.12-43.82 0-17.16-11.12-30.82-29.2-36.16 18.080-4.18 32.68-16.92 32.68-36.62 0-28.28-25.5-48.44-65.36-48.44-30.36 0-53.3 10.66-68.14 26.42z" />
<glyph unicode="&#xe905;" glyph-name="list-unordered" d="M445.040 530.52h450.96v-165.040h-450.96v165.040zM445.040 832h450.96v-165.040h-450.96v165.040zM445.040 229.040h450.96v-165.040h-450.96v165.040zM128 530.52h165.040v-165.040h-165.040v165.040zM128 832h165.040v-165.040h-165.040v165.040zM128 229.040h165.040v-165.040h-165.040v165.040z" />
<glyph unicode="&#xe906;" glyph-name="ellipse-vertical" d="M588.52 666.96h-153.040c-3.32 0-6 2.68-6 6v153.040c0 3.32 2.68 6 6 6h153.040c3.32 0 6-2.68 6-6v-153.040c0-3.32-2.68-6-6-6zM588.52 365.48h-153.040c-3.32 0-6 2.68-6 6v153.040c0 3.32 2.68 6 6 6h153.040c3.32 0 6-2.68 6-6v-153.040c0-3.32-2.68-6-6-6zM588.52 64h-153.040c-3.32 0-6 2.68-6 6v153.040c0 3.32 2.68 6 6 6h153.040c3.32 0 6-2.68 6-6v-153.040c0-3.32-2.68-6-6-6z" />
<glyph unicode="&#xe907;" glyph-name="add" d="M128 530.52h768v-165.040h-768v165.040zM429.48 64v768h165.040v-768h-165.040z" />
<glyph unicode="&#xe908;" glyph-name="chevron-down" d="M818.92 385.54l-257.66-257.66c-27.2-27.2-71.32-27.2-98.52 0l-257.66 257.66c-15.92 15.92-4.64 43.14 17.86 43.14h578.12c22.5-0.020 33.78-27.22 17.86-43.14z" />
<glyph unicode="&#xe909;" glyph-name="chevron-left" d="M629.46 115l-257.66 257.66c-27.2 27.2-27.2 71.32 0 98.52l257.66 257.66c15.92 15.92 43.14 4.64 43.14-17.86v-578.12c0-22.5-27.22-33.78-43.14-17.86z" />
<glyph unicode="&#xe90a;" glyph-name="cross" d="M886.42 705.72l-116.7 116.7-257.72-257.72-257.72 257.72-116.7-116.7 257.72-257.72-257.72-257.72 116.7-116.7 257.72 257.72 257.72-257.72 116.7 116.7-257.72 257.72z" />
<glyph unicode="&#xe90b;" glyph-name="hamburger" d="M128 530.52h768v-165.040h-768v165.040zM128 832h768v-165.040h-768v165.040zM128 229.040h768v-165.040h-768v165.040z" />
<glyph unicode="&#xe90c;" glyph-name="image-o" d="M128.98 832.020v-768.040h768.040v768.040h-768.040zM797.020 163.98h-49.28l-160.060 245.32-95.78-131.26-133.88 276.84-129.040-266.88v444.020h568.040v-568.040zM705.66 596.34c0-29.823-24.177-54-54-54s-54 24.177-54 54c0 29.823 24.177 54 54 54s54-24.177 54-54z" />
<glyph unicode="&#xe90d;" glyph-name="link" d="M728.52 520.8h-100v82.5c0 70.96-52.28 128.68-116.52 128.68s-116.52-57.72-116.52-128.68v-82.5h-100v82.5c0 126.1 97.14 228.68 216.52 228.68s216.52-102.58 216.52-228.68v-82.5zM512 63.92c-119.4 0-216.52 102.58-216.52 228.68v82.5h100v-82.5c0-70.96 52.28-128.68 116.52-128.68s116.52 57.72 116.52 128.68v82.5h100v-82.5c0-126.1-97.12-228.68-216.52-228.68zM512 241.92c-27.62 0-50 22.38-50 50v312.060c0 27.62 22.38 50 50 50s50-22.38 50-50v-312.060c0-27.62-22.38-50-50-50z" />
<glyph unicode="&#xe90e;" glyph-name="link-left" d="M274.18 401.28l-44.42 76.94c-66.84 115.76-32.12 261.36 77.4 324.58 109.5 63.22 252.96 20.48 319.8-95.26l44.42-76.94-86.6-50-44.42 76.94c-39.26 68-121.44 94.32-183.2 58.66s-80.060-119.98-40.8-187.98l44.42-76.94-86.6-50zM607.2 63.96c-82.32 0-164.28 45.060-210.16 124.5l-44.42 76.94 86.6 50 44.42-76.94c39.26-68 121.44-94.32 183.2-58.66 29.34 16.94 49.9 45.4 57.92 80.14 8.3 36.040 2.22 74.34-17.12 107.84l-44.42 76.94 86.6 50 44.42-76.94c32.040-55.5 41.98-119.54 27.96-180.32-14.32-62.080-51.72-113.3-105.36-144.26-34.34-19.84-72.020-29.24-109.64-29.24zM596.060 252.48c-17.28 0-34.080 8.96-43.34 25l-168.020 291.020c-13.8 23.92-5.62 54.5 18.3 68.3s54.5 5.62 68.3-18.3l168.020-291.020c13.8-23.92 5.62-54.5-18.3-68.3-7.88-4.54-16.48-6.7-24.96-6.7z" />
<glyph unicode="&#xe90f;" glyph-name="link-right" d="M749.82 401.28l-86.6 50 44.42 76.94c19.34 33.52 25.42 71.82 17.12 107.84-8.020 34.74-28.58 63.2-57.92 80.14s-64.26 20.52-98.36 10.080c-35.36-10.82-65.5-35.24-84.84-68.76l-44.42-76.94-86.6 50 44.42 76.94c32.040 55.5 82.54 96.12 142.18 114.38 60.92 18.64 124 11.86 177.62-19.1s91.040-82.2 105.36-144.26c14.020-60.78 4.080-124.82-27.96-180.32l-44.42-76.94zM416.8 63.96c-37.62 0-75.28 9.4-109.64 29.24-109.5 63.22-144.22 208.84-77.4 324.58l44.42 76.94 86.6-50-44.42-76.94c-39.26-68-20.96-152.34 40.8-187.98 61.76-35.66 143.94-9.34 183.2 58.66l44.42 76.94 86.6-50-44.42-76.94c-45.88-79.44-127.86-124.5-210.16-124.5zM427.94 252.48c-8.48 0-17.080 2.16-24.96 6.7-23.92 13.8-32.1 44.38-18.3 68.3l168.020 291.020c13.8 23.92 44.38 32.1 68.3 18.3s32.1-44.38 18.3-68.3l-168.020-291.020c-9.24-16.040-26.060-25-43.34-25z" />
<glyph unicode="&#xe910;" glyph-name="code" d="M377.16 157.52l-290.46 290.48 290.46 290.48 79.1-79.1-211.36-211.38 211.36-211.38zM646.84 157.52l-79.1 79.1 211.36 211.38-211.36 211.38 79.1 79.1 290.46-290.48zM426.94 503.94h170.1v-111.86h-170.1v111.86z" />
<glyph unicode="&#xe911;" glyph-name="gear" d="M787.34 463.5c-20.34 13.94-26.56 41.16-14.26 62.54l67.080 116.72c-14.56 23.22-31.52 44.8-50.52 64.36l-129.36-39.62c-23.58-7.22-48.74 4.9-57.8 27.84l-50.18 127.060c-13.24 1.36-26.68 2.080-40.3 2.080s-27.060-0.72-40.3-2.080l-50.16-127.1c-9.060-22.96-34.22-35.060-57.8-27.84l-129.36 39.62c-19-19.56-35.96-41.12-50.52-64.36l67.080-116.72c12.3-21.38 6.080-48.6-14.26-62.54l-108.68-74.36c3.56-28.5 10.2-56.020 19.62-82.24l129.32-19.78c24.38-3.72 41.78-25.56 39.98-50.14l-9.34-128.12c24.42-15.22 50.64-27.78 78.28-37.3l94.060 86.92c18.1 16.74 46.040 16.74 64.14 0l94.060-86.92c27.64 9.52 53.88 22.080 78.28 37.3l-9.34 128.12c-1.8 24.58 15.62 46.44 39.98 50.14l129.32 19.78c9.42 26.2 16.060 53.74 19.62 82.24l-108.64 74.4zM649.92 414.18c-1.28-10.22-3.68-20.1-7.040-29.52-10.64-29.7-31.1-54.7-57.46-71.14-8.76-5.46-18.18-9.96-28.12-13.4-14.18-4.9-29.42-7.54-45.3-7.54-15.86 0-31.1 2.64-45.3 7.54-9.94 3.44-19.36 7.94-28.12 13.4-26.36 16.44-46.84 41.44-57.46 71.14-3.38 9.42-5.76 19.3-7.040 29.52-0.72 5.7-1.060 11.5-1.060 17.38 0 27.080 7.74 52.36 21.14 73.72 5.22 8.34 11.3 16.080 18.14 23.1 22.1 22.76 51.92 37.96 85.26 41.42 4.76 0.5 9.58 0.74 14.46 0.74 4.9 0 9.7-0.24 14.46-0.74 33.34-3.46 63.16-18.66 85.26-41.42 6.82-7.020 12.9-14.76 18.14-23.1 13.4-21.38 21.14-46.66 21.14-73.72-0.020-5.88-0.38-11.68-1.1-17.38z" />
<glyph unicode="&#xe912;" glyph-name="clapper" d="M428.48 569.9l435.52 169.52-36.28 93.18-634.46-246.96c-24.4-9.5-40.46-32.98-40.46-59.16v-462.52h718.4v505.94h-442.72zM771.2 463.48l-62.8-80.72h-99.78l67.8 87.16h94.78v-6.44zM252.8 392.76l60 77.14h99.78l-67.78-87.16h-92v10.020zM494.6 469.9h99.78l-67.78-87.16h-99.78l67.78 87.16zM252.8 163.98v148.1h518.4v-148.1h-518.4z" />
<glyph unicode="&#xe913;" glyph-name="user" d="M512.020 709.84c-70.82 0-144.7-45.6-144.7-179.32 0 0 11.18-124.26 23.5-144.32 14.3-23.26 70.74-93.080 101.4-102.060 14.86-4.36 17.98-4.040 19.8-4.040s4.94-0.32 19.8 4.040c30.66 9 87.1 78.8 101.4 102.060 12.34 20.060 23.52 144.32 23.52 144.32 0 133.72-73.9 179.32-144.72 179.32zM896 186.16h-768c0 69.54 29.58 167.98 189.88 211.26 6.68-31.080 12.7-40.78 16.040-46.3 0.66-1 73.040-111.64 139.56-131.2 16.38-4.84 27.080-6.68 38.12-6.68 0.16 0 1.16 0 1.16 0 10.7 0 21.4 1.84 37.94 6.68 66.36 19.56 138.72 130.2 139.56 131.2 3.34 5.52 9.18 15.22 16.040 46.3 160.12-43.28 189.7-141.88 189.7-211.26z" />
<glyph unicode="&#xe914;" glyph-name="mail" d="M526.98 352.7c-4.78-2.080-9.88-3.14-14.98-3.14s-10.2 1.040-14.96 3.14l-369.040 161.56v-252.92c0-11.78 9.56-21.34 21.34-21.34h725.34c11.78 0 21.34 9.56 21.34 21.34v252.92l-369.040-161.56zM512 427.66l384 168.1v38.88c0 11.78-9.56 21.34-21.34 21.34h-725.32c-11.78 0-21.34-9.54-21.34-21.34v-38.88l384-168.1z" />
<glyph unicode="&#xe915;" glyph-name="home" d="M896 428.98l-361.38 361.38c-12.5 12.5-32.76 12.5-45.26 0l-361.36-361.38h104.34v-300.72c0-17.68 14.32-32 32-32h115.52c17.68 0 32 14.32 32 32v140.5c0 17.68 14.32 32 32 32h136.32c17.68 0 32-14.32 32-32v-140.5c0-17.68 14.32-32 32-32h115.52c17.68 0 32 14.32 32 32v300.72h104.3z" />
<glyph unicode="&#xe916;" glyph-name="rocket" d="M676.1 453l1.12 23.1c0 216.52-165.080 355.9-165.080 355.9s-165.080-139.38-165.080-355.88l0.74-23.1c-42.66-40.9-164.98-181.16-96.92-381.4 3.6-10.58 18.92-9.66 21.26 1.26 8.48 39.44 30.66 100.1 88.7 153.2l1.5-31.3c1.12-27.94 24.22-49.94 52.16-49.94 0 0 39.8 37.6 97.5 37.6s97.4-37.6 97.4-37.6c28.32 0 51.060 21.98 52.18 49.94l2.24 31.3c57.68-53.020 79.8-113.78 88.28-153.32 2.34-10.94 17.72-11.9 21.28-1.3 67.6 200.46-55 340.66-97.28 381.54zM512.14 317.66c-36.62 0-66.64 29.62-66.64 66.22 0 37.44 30.020 66.64 66.64 66.64 36.6 0 66.22-29.2 66.22-66.64 0-36.6-29.62-66.22-66.22-66.22zM512.56 520.18c-36.62 0-66.64 30.020-66.64 66.64 0 36.6 30.020 66.22 66.64 66.22 36.6 0 66.22-29.62 66.22-66.22 0-36.62-29.62-66.64-66.22-66.64z" />
<glyph unicode="&#xe917;" glyph-name="rocket-left" d="M551.020 593.2l-10.26 19.96c-104.98 181.84-311.22 218.84-311.22 218.84s-71.060-197.1 33.92-378.94l11.84-19.040c-16-55.040-50.72-232.14 103.54-367.32 8.14-7.14 20.58 1.060 17.26 11.36-12.020 37.24-22.8 98.94 0.2 171.68l16.44-25.56c14.5-22.94 44.56-30.2 68.020-16.64 0 0 15.2 50.88 63.66 78.86s100.040 15.64 100.040 15.64c23.78 13.74 32.22 43.22 19.6 67.24l-13.3 27.38c74.14-16.56 122.2-56.86 148.48-85.96 7.28-8.040 20.64-1.4 18.5 9.24-40.44 201.12-211.38 259.42-266.72 273.26zM478.94 400.020c-30.76-17.76-70.34-7.44-88.080 23.3-18.16 31.44-7.1 70.54 23.66 88.28 30.74 17.76 69.78 7.58 87.94-23.86 17.74-30.72 7.22-69.96-23.52-87.72zM381.1 570.32c-30.76-17.76-70.54-7.1-88.28 23.66-17.76 30.74-6.9 70.18 23.86 87.94 30.74 17.76 69.98 7.24 87.74-23.5 17.72-30.78 7.42-70.36-23.32-88.1z" />
<glyph unicode="&#xe918;" glyph-name="rocket-right" d="M748.32 434.26l12.14 18.86c104.96 181.82 33.92 378.88 33.92 378.88s-206.2-37-311.16-218.8l-10.58-19.76c-55.64-13.66-226.36-72.14-266.3-273.28-2.1-10.62 11.2-17.28 18.46-9.26 26.24 29.020 74.28 69.2 148.76 85.66l-13.92-27.020c-12.62-24.020-3.88-53.68 19.6-67.22 0 0 51.66 12.28 100.1-15.7 48.46-27.98 63.56-78.8 63.56-78.8 23.78-13.74 53.54-6.28 68.020 16.64l17.060 25.2c22.74-72.48 11.84-134.22-0.2-171.54-3.34-10.32 9.1-18.58 17.24-11.42 153.96 135.56 118.98 312.72 103.3 367.56zM545.020 400.1c-30.74 17.76-41.6 57.18-23.86 87.92 18.16 31.44 57.52 41.4 88.28 23.66 30.74-17.74 41.46-56.64 23.3-88.060-17.76-30.76-56.98-41.26-87.72-23.52zM643.54 569.96c-30.74 17.76-41.4 57.52-23.66 88.28 17.74 30.74 57.32 41.060 88.060 23.3 30.74-17.74 41.26-56.98 23.5-87.72-17.72-30.76-57.16-41.62-87.9-23.86z" />
<glyph unicode="&#xe919;" glyph-name="chevron-right" d="M394.54 728.84l257.66-257.66c27.2-27.2 27.2-71.32 0-98.52l-257.66-257.66c-15.92-15.92-43.14-4.64-43.14 17.86v578.12c0 22.5 27.22 33.78 43.14 17.86z" />
<glyph unicode="&#xe91a;" glyph-name="chevron-up" d="M205.080 150.68l257.66 257.66c27.2 27.2 71.32 27.2 98.52 0l257.66-257.66c15.92-15.92 4.64-43.14-17.86-43.14h-578.12c-22.5 0-33.78 27.22-17.86 43.14z" />
<glyph unicode="&#xe91b;" glyph-name="subtract" d="M128 530.52h768v-165.040h-768v165.040z" />
<glyph unicode="&#xe91c;" glyph-name="ellipse" d="M429.48 365.48v165.040h165.040v-165.040h-165.040zM128.002 365.478v165.040h165.040v-165.040h-165.040zM730.958 365.482v165.040h165.040v-165.040h-165.040z" />
<glyph unicode="&#xe91d;" glyph-name="pencil-left" d="M578.22 141.24l163.7 94.5-0.8-149.92c-0.080-16.72-18.16-27.14-32.66-18.86l-130.24 74.28zM328.034 574.56l163.691 94.51 218.070-377.697-163.691-94.51-218.070 377.697zM309.48 820.92l-21.82-12.6c-39.18-22.62-52.6-72.72-29.98-111.9l33.54-58.1 163.7 94.52-33.54 58.1c-22.62 39.18-72.72 52.6-111.9 29.98z" />
<glyph unicode="&#xe91e;" glyph-name="pencil" d="M427.92 188.78h168.16l-67.3-115.16c-7.5-12.84-26.060-12.84-33.56 0l-67.3 115.16zM427.92 633.92h168.16v-388.020h-168.16v388.020zM523.22 832h-22.42c-40.24 0-72.88-32.62-72.88-72.88v-59.7h168.18v59.7c-0.020 40.26-32.64 72.88-72.88 72.88z" />
<glyph unicode="&#xe91f;" glyph-name="pencil-right" d="M270.6 221.94l163.7-94.5-130.24-74.28c-14.52-8.28-32.58 2.14-32.66 18.86l-0.8 149.92zM302.699 277.529l218.070 377.697 163.691-94.51-218.070-377.697-163.691 94.51zM724.86 794.5l-21.82 12.6c-39.18 22.62-89.28 9.2-111.9-29.98l-33.54-58.1 163.7-94.52 33.54 58.1c22.62 39.18 9.2 89.28-29.98 111.9z" />
<glyph unicode="&#xe920;" glyph-name="tick" d="M885.48 777.64c-13.52 12.76-34.82 12.18-47.58-1.34l-448.5-474.44-196.3 153.42c-14.22 11.12-34.72 11.62-49.62 0-17.52-13.72-20.64-39.040-6.94-56.56l204.44-261.58c4.040-5.12 9-10.020 14.52-14.040 32.5-23.66 78-16.48 101.66 16.020l432.42 594.26c9.82 13.48 8.34 32.5-4.1 44.26z" />
<glyph unicode="&#xe921;" glyph-name="audio" d="M896 258.040c0 33.74-7.9 64.26-24.56 86 0.54 21.3-0.32 42.84-2.48 64.36-5.52 58.84-20.98 117.9-48.36 173.5-13.74 27.8-31.16 54.4-52.020 78.74-20.66 24.56-45.44 46.3-73.34 64.040-54.3 35.16-120.060 52.56-183.24 52.46-63.18 0.1-128.94-17.3-183.24-52.46-27.9-17.74-52.68-39.48-73.34-64.040-20.88-24.34-38.3-50.94-52.020-78.74-27.36-55.6-42.84-114.66-48.36-173.5-2.16-21.52-3.020-43.060-2.48-64.36-16.66-21.74-24.56-52.24-24.56-86 0-66.080 30.28-119.62 96.36-119.64v-2.56c0-9.4 7.58-16.98 16.88-16.98h48.14c9.42 0 16.98 7.58 16.98 16.98v35.2c0 0 0.020 0.020 0.020 0.020v173.82c0 0-0.020 0.020-0.020 0.020v35.38c0 9.3-7.58 16.88-16.98 16.88h-48.14c-9.3 0-16.88-7.58-16.88-16.88v-2.74c-9.5 0-18.26-1.080-26.26-3.24 1.74 8.54 3.68 17.1 5.84 25.42 13.84 51.7 37.32 100.060 67.82 140.62 30.94 40.24 68.26 73.020 109.9 93.56 40.24 20.34 84.040 30.72 130.34 31.7 46.3-0.98 90.1-11.36 130.34-31.7 41.64-20.56 78.96-53.32 109.9-93.56 30.5-40.56 53.98-88.92 67.82-140.62 2.16-8.32 4.12-16.88 5.84-25.42-8 2.16-16.74 3.24-26.26 3.24v2.74c0 9.3-7.58 16.88-16.88 16.88h-48.14c-9.42 0-16.98-7.58-16.98-16.88v-35.38c0 0-0.020-0.020-0.020-0.020v-173.82c0 0 0.020-0.020 0.020-0.020v-35.2c0-9.4 7.58-16.98 16.98-16.98h48.14c9.3 0 16.88 7.58 16.88 16.98v2.56c66.080 0.020 96.36 53.56 96.36 119.64z" />
<glyph unicode="&#xe922;" glyph-name="play" d="M795.56 398l-502.56-324.4c-39.6-25.56-91.78 2.86-91.78 50v648.78c0 47.14 52.18 75.56 91.78 50l502.56-324.38c36.32-23.44 36.32-76.56 0-100z" />
<glyph unicode="&#xe923;" glyph-name="share" d="M885.36 469.16l-299.48 220.58c-17.24 12.7-41.62 0.38-41.62-21.040v-135.66h-127.78c-65.3 0-118.44 53.1-118.44 118.4v43.42h-170.040v-43.42c0-159.060 129.42-288.46 288.48-288.46h127.78v-135.68c0-21.44 24.38-33.76 41.64-21.040l299.48 220.82c14.16 10.46 14.16 31.64-0.020 42.080z" />
<glyph unicode="&#xe924;" glyph-name="garbage-can" d="M829.46 728.74h-140.42v27.46c0 41.86-33.94 75.8-75.8 75.8h-202.48c-41.86 0-75.8-33.94-75.8-75.8v-27.48h-140.42c-35.4 0-64.1-28.7-64.1-64.12 0-35.4 28.7-64.1 64.1-64.1h6.1l58.46-436.38c2.2-55.94 48.18-100.14 104.14-100.14h297.48c55.96 0 101.94 44.2 104.14 100.14l58.46 436.38h6.1c35.4 0 64.1 28.7 64.1 64.1 0.040 35.42-28.66 64.14-64.060 64.14z" />
<glyph unicode="&#xe925;" glyph-name="comment" d="M754 795.92h-484.020c-78.42 0-141.98-63.56-141.98-141.98v-234.84c0-78.42 63.56-142 141.98-142h191.86v-177.020l273.5 177.020h18.66c78.42 0 142 63.58 142 142v234.84c0 78.42-63.56 141.98-142 141.98z" />
<glyph unicode="&#xe926;" glyph-name="heart" d="M682.32 776.020c-69.66 0-154.020-35.64-170.32-125.42-16.3 89.78-100.66 125.42-170.32 125.42-118.14 0-213.68-95.92-213.68-214.060v-2.56c0-2.54 0-8.020 0.74-15.32 0.38-3.28 0.74-6.56 1.080-9.84 0.38-3.66 1.1-7.28 1.84-11.3 0.36-1.82 0.74-4 1.080-6.2 17.5-116.7 364.3-384.72 379.26-396.76 14.96 12.040 361.76 280.060 379.26 396.74 0.36 2.2 0.74 4.38 1.080 6.2 0.74 4.020 1.46 7.66 1.84 11.3 0.36 3.3 0.72 6.58 1.080 9.84 0.74 7.3 0.74 12.76 0.74 15.32v2.56c0 118.16-95.54 214.080-213.68 214.080z" />
<glyph unicode="&#xe927;" glyph-name="brush" d="M762.26 64h-117.94c0 0-77.36 51.24-101.040 166.14 0 0-13.68-120.82 39.34-166.14 0 0-85.28 48.4-98.62 124.88 0 0-6.18-83.2 29.42-124.88h-208.18c0 0-43.5 16.8-43.5 104.8 0 88.2 0 105 0 105h467.94c0 0 0-21.24 0-105s32.58-104.8 32.58-104.8zM641.88 494.74c-22.66 17.8-52.4 36.22-52.4 80.32 0 62.32 45.12 83.14 39.24 138.78-11.32 104.82-112.28 118.16-133.12 118.16s-121.8-13.34-132.92-118.14c-5.86-55.64 39.24-76.46 39.24-138.78 0-44.1-29.74-62.52-52.4-80.32-41.46-32.38-87.8-31.16-87.8-97.32v-58.86h467.94v58.86c0.020 66.16-46.32 64.94-87.78 97.3zM495.6 663.88c-28.94 0-52.4 23.46-52.4 52.4 0 28.92 23.46 52.4 52.4 52.4 29.14 0 52.6-23.48 52.6-52.4 0-28.94-23.46-52.4-52.6-52.4z" />
<glyph unicode="&#xe928;" glyph-name="brush-left" d="M849.080 289.64l-100.78-58.18c0 0-91.38 5.62-168.3 92.12 0 0 47.92-109.98 115.58-122.56 0 0-96.74-0.7-145.88 58.040 0 0 35.76-74.14 86.74-92.18l-177.86-102.68c0 0-45.44-7.1-88.86 68.080-43.52 75.36-51.8 89.72-51.8 89.72l399.84 230.84c0 0 10.48-18.14 51.8-89.72s79.52-73.48 79.52-73.48zM533.72 598.28c-28.14 4.040-62.64 5.1-84.4 42.78-30.74 53.24-2.46 93.3-34.92 137.94-61.38 83.96-154.22 45.56-172.020 35.28s-97.48-71.48-55.28-166.52c22.44-50.44 71.26-45.98 102-99.22 21.76-37.68 5.44-68.1-5.14-94.48-19.46-48.12-59.64-69.94-27.020-126.46l29.040-50.3 399.82 230.84-29.040 50.3c-32.64 56.54-71.64 32.64-123.040 39.84zM325.3 670.66c-24.72-14.28-56.34-5.8-70.62 18.92-14.26 24.72-5.8 56.34 18.92 70.62 24.9 14.38 56.52 5.9 70.78-18.82 14.3-24.74 5.82-56.36-19.080-70.72z" />
<glyph unicode="&#xe929;" glyph-name="brush-right" d="M598.46 64l-96.1 55.48c0 0-38.94 78.14-4.16 182.88 0 0-67.98-92-46.1-153.86 0 0-46.7 79.54-21.62 148.12 0 0-44.18-64.88-34.78-115.58l-169.6 97.92c0 0-27.54 34.14 13.86 105.84 41.48 71.86 49.38 85.54 49.38 85.54l381.24-220.12c0 0-10-17.3-49.38-85.54-39.38-68.22-22.74-100.68-22.74-100.68zM702.98 471.56c-10.080 25.16-25.66 54.16-4.9 90.080 29.32 50.76 75.86 46.52 97.26 94.6 40.060 90.7-35.9 149.080-52.88 158.86-16.98 9.8-105.5 46.42-163.86-33.74-30.96-42.56-4-80.76-33.3-131.52-20.74-35.94-53.64-36.94-80.48-40.8-49.020-6.86-86.18 15.92-117.3-37.98l-27.68-47.96 381.24-220.1 27.68 47.96c31.1 53.92-7.22 74.72-25.78 120.6zM663.38 678.16c-23.58 13.6-31.66 43.76-18.040 67.34 13.6 23.56 43.76 31.64 67.34 18.040 23.74-13.7 31.82-43.86 18.2-67.42-13.62-23.58-43.76-31.66-67.5-17.96z" />
<glyph unicode="&#xe92a;" glyph-name="speaker" d="M609.24 820.080l-132.34-167.3-0.32-0.2h-173.94c-91.94 0-166.48-74.54-166.48-166.48v-69.46c0-91.94 74.54-166.48 166.48-166.48h174.26v2.34l131.76-175.88c20.62-24.98 61.18-10.4 61.18 21.98v698.8c-0.020 31.92-39.64 46.76-60.6 22.68zM793.9 611h-49.3v-319.26h49.28c51.9 0 93.96 42.060 93.96 93.96v131.34c0.020 51.9-42.060 93.96-93.94 93.96z" />
<glyph unicode="&#xe92b;" glyph-name="pause" d="M405.92 832h-161.92c-11.040 0-20-8.96-20-20v-728c0-11.040 8.96-20 20-20h161.92c11.040 0 20 8.96 20 20v728c0 11.040-8.96 20-20 20zM780 832h-161.92c-11.040 0-20-8.96-20-20v-728c0-11.040 8.96-20 20-20h161.92c11.040 0 20 8.96 20 20v728c0 11.040-8.96 20-20 20z" />
<glyph unicode="&#xe92c;" glyph-name="bell" d="M836.88 252.62c-39 26.24-112.46 56.7-112.46 265.9 0 87.68-53.14 162.74-128.9 195.2 3.16 9.1 5.24 18.72 5.24 28.9 0 48.96-39.82 88.78-88.76 88.78-48.96 0-88.78-39.82-88.78-88.78 0-10.58 2.16-20.6 5.58-30.020-77.060-34.54-128.24-115.32-129.26-204.2-2.3-198.62-71.96-227.74-110.7-254.6-15.46-10.72-25.38-27.68-25.38-46.5v-8.32c0-30.52 24.74-55.26 55.26-55.26h214.16c0-43.7 35.44-79.12 79.12-79.12s79.12 35.42 79.12 79.12h214.16c30.52 0 55.26 24.74 55.26 55.26v8.38c0.020 18.12-8.62 35.14-23.66 45.26zM462.32 742.62c0 27.4 22.28 49.66 49.66 49.66s49.64-22.28 49.64-49.66c0-5.96-1.48-11.48-3.4-16.78-22.34 4.96-46 6.44-70.38 3.76-7.6-0.84-14.66-3.040-21.94-4.7-2.12 5.56-3.58 11.44-3.58 17.72z" />
<glyph unicode="&#xe92d;" glyph-name="jigsaw" d="M667.66 376.32c0-40.4 32.78-73.12 73.18-73.12 12.64 0 24.52 3.18 34.9 8.82l0.040 0.040c0.040 0 0.040 0 0.1 0.040 90.62 31.16 115.88-37.34 117.5-42.060v-206.040h-187.22c-77.7 12.32-53.32 102.58-45.8 125.54 0 0.1 0.040 0.14 0.040 0.18 0.14 0.36 0.32 0.74 0.42 1.16 0.42 0.92 0.74 1.9 1.020 2.86 0.040 0.14 0.1 0.22 0.1 0.36 0.1 0.24 0.18 0.46 0.24 0.64 0.040 0.040 0.040 0.040 0.040 0.1 2.16 6.88 3.32 14.22 3.32 21.8 0 40.4-32.78 73.18-73.18 73.18s-73.18-32.78-73.18-73.18c0-12.6 3.18-24.52 8.82-34.86 0.040-0.040 0.040-0.040 0.040-0.1 32.4-93.9-42.28-117.68-42.28-117.68h-130.2v165.7c-5.72 99.9-116.72 68.32-122.44 66.62-0.14 0-0.24-0.040-0.24-0.040-8.92-3.92-18.8-6.040-29.14-6.040-40.4 0-73.14 32.78-73.14 73.18s32.74 73.18 73.14 73.18c11.080 0 21.6-2.44 30.98-6.88 0.24-0.1 0.5-0.24 0.74-0.32 111.12-48.34 119.62 38.92 120.080 59.74 0.1 2.78 0 4.34 0 4.34v113.62h124.56c102.54 5.86 66.52 122.66 66.52 122.66-3.88 8.92-6 18.78-6 29.14 0 40.4 32.74 73.12 73.18 73.12 40.4 0 73.12-32.74 73.12-73.12 0-11.080-2.44-21.6-6.88-30.98-0.1-0.22-0.24-0.5-0.32-0.74-48.34-111.12 38.96-119.62 59.78-120.080 2.76-0.1 4.34 0 4.34 0h149.5v-117.4c-12.88-78.72-106.32-51.76-126.78-44.82-0.040 0-0.040 0-0.040 0-0.6 0.22-1.2 0.46-1.84 0.64-0.42 0.18-0.88 0.32-1.34 0.46-0.46 0.18-0.74 0.28-0.74 0.28h-0.040c-6.84 2.12-14.18 3.28-21.74 3.28-40.38-0.040-73.16-32.78-73.16-73.22z" />
<glyph unicode="&#xe92e;" glyph-name="folder" d="M844.66 665.42h-488.74l-33.86 51.66h-194.060v-486.78c0-28.36 22.98-51.34 51.34-51.34h665.3c28.36 0 51.34 22.98 51.34 51.34v383.76c0.020 28.36-22.96 51.36-51.32 51.36z" />
<glyph unicode="&#xe92f;" glyph-name="page" d="M779.66 641.26h-110.62c-42.82 0-77.52 34.7-77.52 77.52v113.22l188.14-190.74zM669.040 579.26h110.62v-475.86c0-21.76-17.64-39.4-39.4-39.4h-456.52c-21.76 0-39.4 17.64-39.4 39.4v689.2c0 21.76 17.64 39.4 39.4 39.4h245.78v-113.22c0-77.060 62.46-139.52 139.52-139.52z" />
<glyph unicode="&#xe930;" glyph-name="ia-visuals" d="M944.62 336.32c-2.12 8.92-5.94 17.3-11.14 24.68-5.18 7.4-11.64 13.92-19.16 19.12-7.5 5.2-16.060 9.080-25.14 11.18-9.080 2.12-18.62 2.4-27.8 0.92-9.18-1.46-17.92-4.6-25.9-8.74-3.98-2.1-7.76-4.44-11.4-6.96-1.8-1.28-3.58-2.56-5.28-3.94l-1.3-1.020-1.34-1.14c-0.92-0.76-1.74-1.54-2.62-2.32-6.72-6.3-12.020-13.040-16.9-19.6-9.64-13.18-17.76-26-26.88-37.2-9.040-11.22-18.96-20.76-30.18-27.44-11.2-6.74-23.7-10.62-37-12.020-3.32-0.34-6.68-0.58-10.1-0.64-1.7-0.060-3.4-0.020-5.14-0.020l-5.44 0.18c-7.26 0.2-14.44 0.86-21.58 1.66-14.2 1.88-28.14 4.88-41.26 9.6-13.14 4.64-25.54 10.82-36.6 18.56-2.52 1.76-4.96 3.62-7.32 5.54 8-3.060 16.22-5.72 24.64-7.84 13.62-3.42 27.82-5.56 42.32-5.6 14.48-0.060 29.28 1.98 43.38 6.54 14.1 4.52 27.38 11.56 38.96 20.32 5.8 4.36 11.24 9.12 16.28 14.18 5 5.080 9.62 10.42 13.94 15.92 2.1 2.78 4.2 5.56 6.14 8.42 2 2.78 3.86 5.88 5.64 8.96 3.56 6.18 6.7 12.72 9.32 19.48 5.24 13.54 7.98 28.16 8.32 42.3 0.38 14.16-1.46 27.7-3.42 40.26-1.94 12.58-3.96 24.38-3.44 35.040 0.26 5.32 1.16 10.32 2.9 15 1.72 4.66 4.38 9.28 7.62 13.040 3.24 3.78 7.080 6.8 11.58 9.020s9.64 3.62 15.16 4.38c11.1 1.54 23.3 0.5 36.040-0.32 6.42-0.38 13.040-0.78 20.2-0.12 3.58 0.36 7.34 0.98 11.2 2.42 3.82 1.4 7.76 3.82 10.7 7.2 2.98 3.36 4.78 7.32 5.8 11.080 1.040 3.78 1.38 7.44 1.5 10.96 0.14 7.060-0.78 13.66-1.98 20.12-2.5 12.88-6.28 25.14-10.4 37.22-0.8 2.36-3.32 3.72-5.76 3.060-2.54-0.7-4.040-3.32-3.34-5.86v-0.020c3.3-12.040 6.22-24.2 7.76-36.26 0.74-6 1.14-12.020 0.68-17.58-0.46-5.54-2.020-10.58-4.72-13.080-1.34-1.3-2.98-2.22-5.12-2.86-2.12-0.64-4.66-0.96-7.36-1.040-5.44-0.16-11.46 0.5-17.6 1.26-12.32 1.52-25.4 3.66-39.52 2.66-7.020-0.52-14.36-1.92-21.4-4.86-7.060-2.9-13.66-7.4-19-12.88-2.7-2.74-5.040-5.7-7.2-8.76-2.16-3.080-4.080-6.38-5.7-9.82-3.28-6.9-5.24-14.36-6.18-21.6-0.96-7.26-1.020-14.3-0.8-21.020 0.24-6.74 0.76-13.18 1.2-19.44 0.94-12.48 1.44-24.22 0.22-35.28-1.2-11.060-4.1-21.42-8.8-31.12-2.34-4.84-5.080-9.54-8.22-14.040-1.56-2.28-3.2-4.42-4.94-6.74-1.68-2.32-3.46-4.5-5.24-6.7-14.34-17.44-32.24-30.44-52.36-36.1-20.1-5.78-42.26-4.44-63.78 1.84-10.76 3.1-21.4 7.38-31.66 12.5-0.28 0.14-0.56 0.3-0.84 0.44 0.060 0.32 0.1 0.64 0.14 0.94 7.46 1.1 14.88 2.44 22.3 4.12 17.7 4 35.4 9.6 52.62 18.2 4.3 2.14 8.56 4.5 12.76 7.1 4.2 2.56 8.32 5.4 12.32 8.5 8.020 6.16 15.58 13.5 22.040 21.98 3.24 4.24 6.12 8.8 8.72 13.52 2.52 4.78 4.74 9.72 6.48 14.82 3.52 10.18 5.28 20.74 5.72 30.98 0.36 10.24-0.6 20.18-2.36 29.66-1.78 9.5-4.32 18.48-7.44 27.26-6.66 18.060-16.6 34.38-27.94 48.54-22.7 28.5-50.46 49.16-74.2 70.3-5.9 5.28-11.52 10.62-16.46 16.080-4.96 5.44-9.14 11.060-11.98 16.66-2.84 5.62-4.24 11.1-4.060 16.82 0.2 5.72 1.94 11.88 5.14 18.040 0.72 1.54 1.68 3.060 2.54 4.6 0.96 1.5 1.94 3.14 2.82 4.38 1.88 2.6 3.96 4.94 6.32 6.98 4.68 4.080 10.42 6.96 17.020 8.7s13.94 2.36 21.48 2.24c7.58-0.12 15.38-0.96 23.24-2.16 15.78-2.38 31.76-6.22 48.26-9.4 8.28-1.58 16.7-3 25.5-3.68 4.4-0.32 8.9-0.46 13.52-0.14s9.4 1.040 14.18 2.7c4.76 1.64 9.5 4.34 13.28 8.12 3.8 3.76 6.46 8.34 8.16 12.92 3.34 9.24 3.66 18.34 3.32 27.020-0.92 17.4-4.86 33.78-9.32 49.88-0.68 2.42-3.12 3.92-5.62 3.38-2.58-0.56-4.2-3.1-3.64-5.68v-0.040c3.48-15.9 6.32-32.1 6.24-47.78-0.080-7.76-1.040-15.5-3.74-21.68-2.74-6.22-7.12-10.060-13.34-11.78-6.22-1.74-13.8-1.5-21.4-0.52-7.64 1.020-15.46 2.78-23.3 4.74-15.74 3.94-31.68 8.76-48.42 12.28-8.38 1.76-16.96 3.2-25.9 3.86-8.92 0.64-18.24 0.52-27.76-1.4-9.48-1.88-19.22-5.88-27.4-12.22-4.1-3.14-7.76-6.8-10.96-10.7-1.64-2.020-2.92-3.86-4.32-5.74-1.32-1.96-2.68-3.88-3.88-5.98-4.98-8.16-8.96-17.9-10.16-28.66-0.6-5.36-0.44-10.88 0.44-16.2 0.86-5.32 2.42-10.42 4.38-15.16 3.96-9.48 9.34-17.52 14.98-24.72 5.66-7.22 11.62-13.68 17.62-19.86 11.98-12.3 24.040-23.52 35.16-35 11.14-11.44 21.42-23.080 29.82-35.36 8.44-12.24 14.9-25.1 18.74-38.38 4.2-13.84 6.48-27.9 5.46-40.4-1.12-12.52-5.26-23.2-12.82-32.16-7.48-8.98-18.36-16.38-30.96-22-12.6-5.64-26.8-9.6-41.42-12.24-6.3-1.14-12.72-2.020-19.16-2.68 14.5 23.78 23.46 56.28 23.46 92.18 0 72.8-36.8 131.82-82.18 131.82s-82.18-59.020-82.18-131.82c0-35.88 8.96-68.4 23.46-92.18-6.44 0.66-12.86 1.54-19.16 2.68-14.62 2.64-28.82 6.58-41.42 12.24-12.6 5.62-23.48 13.020-30.96 22-7.56 8.94-11.7 19.64-12.82 32.16-1.020 12.5 1.26 26.54 5.46 40.4 3.84 13.28 10.3 26.14 18.74 38.38 8.4 12.28 18.68 23.92 29.82 35.36 11.14 11.48 23.18 22.68 35.16 35 5.98 6.18 11.96 12.64 17.62 19.86 5.64 7.2 11.020 15.24 14.98 24.72 1.96 4.72 3.52 9.82 4.38 15.16 0.88 5.32 1.040 10.84 0.44 16.2-1.2 10.76-5.18 20.52-10.16 28.66-1.2 2.1-2.56 4.020-3.88 5.98-1.4 1.9-2.68 3.72-4.32 5.74-3.2 3.92-6.86 7.58-10.96 10.7-8.18 6.34-17.92 10.34-27.4 12.22-9.54 1.92-18.86 2.040-27.76 1.4-8.94-0.66-17.52-2.12-25.9-3.86-16.74-3.52-32.68-8.32-48.42-12.28-7.86-1.96-15.66-3.72-23.3-4.74-7.6-1-15.18-1.24-21.4 0.52-6.22 1.72-10.6 5.54-13.34 11.78-2.7 6.2-3.66 13.92-3.74 21.68-0.080 15.68 2.76 31.86 6.24 47.78l0.020 0.060c0.54 2.46-0.94 4.92-3.38 5.6-2.54 0.7-5.16-0.78-5.86-3.32-4.46-16.1-8.4-32.48-9.32-49.88-0.34-8.68-0.020-17.78 3.32-27.020 1.72-4.58 4.38-9.18 8.16-12.92 3.76-3.78 8.52-6.5 13.28-8.12 4.78-1.66 9.56-2.38 14.18-2.7 4.64-0.32 9.12-0.18 13.52 0.14 8.8 0.68 17.22 2.12 25.5 3.68 16.52 3.18 32.5 7 48.26 9.4 7.86 1.2 15.68 2.020 23.24 2.16 7.56 0.12 14.9-0.48 21.48-2.24 6.6-1.74 12.36-4.62 17.020-8.7 2.36-2.020 4.44-4.38 6.32-6.98 0.9-1.24 1.88-2.86 2.82-4.38 0.86-1.54 1.82-3.060 2.54-4.6 3.2-6.16 4.94-12.32 5.14-18.040 0.18-5.74-1.22-11.2-4.060-16.82-2.84-5.6-7.020-11.22-11.98-16.66-4.94-5.46-10.56-10.78-16.46-16.080-23.74-21.14-51.5-41.78-74.2-70.3-11.34-14.16-21.28-30.48-27.94-48.54-3.12-8.8-5.66-17.76-7.44-27.26-1.76-9.48-2.72-19.4-2.36-29.66 0.44-10.24 2.18-20.8 5.72-30.98 1.76-5.080 3.96-10.040 6.48-14.82 2.6-4.72 5.48-9.3 8.72-13.52 6.46-8.48 14.020-15.82 22.040-21.98 4-3.1 8.12-5.94 12.32-8.5 4.18-2.6 8.46-4.94 12.76-7.1 17.22-8.6 34.92-14.18 52.62-18.2 7.42-1.68 14.84-3.020 22.3-4.12 0.040-0.32 0.1-0.64 0.14-0.94-0.28-0.14-0.56-0.3-0.84-0.44-10.26-5.12-20.9-9.4-31.66-12.5-21.52-6.26-43.68-7.62-63.78-1.84-20.12 5.66-38.020 18.64-52.36 36.1-1.78 2.2-3.56 4.38-5.24 6.7-1.72 2.32-3.38 4.46-4.94 6.74-3.12 4.52-5.88 9.2-8.22 14.040-4.7 9.7-7.6 20.060-8.8 31.12-1.22 11.080-0.72 22.8 0.22 35.28 0.44 6.24 0.96 12.7 1.2 19.44 0.22 6.72 0.18 13.78-0.8 21.020-0.94 7.24-2.9 14.7-6.18 21.6-1.62 3.44-3.54 6.74-5.7 9.82-2.14 3.060-4.5 6.040-7.18 8.76-5.34 5.5-11.94 10-19 12.88-7.060 2.94-14.38 4.32-21.4 4.86-14.1 1-27.18-1.14-39.52-2.66-6.14-0.76-12.16-1.42-17.6-1.26-2.72 0.080-5.24 0.4-7.36 1.040-2.14 0.64-3.78 1.56-5.12 2.86-2.7 2.5-4.28 7.52-4.72 13.080-0.48 5.58-0.080 11.58 0.68 17.58 1.56 12.060 4.48 24.22 7.76 36.26l0.020 0.040c0.66 2.4-0.68 4.94-3.060 5.76-2.5 0.84-5.2-0.48-6.040-2.98-4.12-12.080-7.9-24.32-10.4-37.22-1.2-6.46-2.12-13.080-1.98-20.12 0.1-3.54 0.46-7.18 1.5-10.96 1.020-3.76 2.84-7.72 5.8-11.080 2.94-3.38 6.88-5.8 10.7-7.2 3.86-1.44 7.62-2.080 11.2-2.42 7.16-0.66 13.78-0.26 20.2 0.12 12.76 0.82 24.94 1.86 36.040 0.32 5.52-0.76 10.66-2.16 15.16-4.38s8.34-5.24 11.58-9.020c3.26-3.76 5.92-8.38 7.62-13.040 1.74-4.7 2.66-9.68 2.9-15 0.52-10.66-1.5-22.46-3.44-35.040-1.96-12.56-3.8-26.1-3.42-40.26 0.34-14.14 3.080-28.76 8.32-42.3 2.6-6.78 5.74-13.3 9.32-19.48 1.78-3.080 3.64-6.18 5.64-8.96 1.94-2.86 4.040-5.64 6.14-8.42 4.3-5.5 8.92-10.84 13.94-15.92 5.040-5.040 10.46-9.8 16.28-14.18 11.6-8.74 24.86-15.8 38.96-20.32 14.1-4.56 28.9-6.6 43.38-6.54 14.52 0.040 28.72 2.16 42.32 5.6 8.44 2.14 16.64 4.78 24.64 7.84-2.36-1.92-4.8-3.78-7.32-5.54-11.040-7.72-23.46-13.92-36.6-18.56-13.12-4.72-27.060-7.72-41.26-9.6-7.14-0.8-14.32-1.48-21.58-1.66l-5.44-0.18c-1.74 0-3.44-0.040-5.14 0.020-3.4 0.040-6.76 0.28-10.1 0.64-13.32 1.4-25.82 5.3-37 12.020-11.24 6.68-21.14 16.22-30.18 27.44-9.12 11.22-17.26 24.020-26.88 37.2-4.88 6.58-10.16 13.3-16.9 19.6-0.88 0.78-1.7 1.56-2.62 2.32l-1.34 1.14-1.3 1.020c-1.7 1.36-3.48 2.66-5.28 3.94-3.62 2.52-7.42 4.86-11.4 6.96-7.98 4.14-16.72 7.28-25.9 8.74-9.16 1.48-18.72 1.2-27.8-0.92-9.080-2.1-17.64-5.98-25.14-11.18-7.52-5.2-13.98-11.72-19.16-19.12s-9.020-15.78-11.14-24.68c-2.080-8.9-2.32-18.44-0.16-27.56 1.080-4.56 2.72-8.98 4.88-13.080 0.54-1.040 1.14-2.020 1.7-3.040 0.62-0.98 1.24-1.94 1.88-2.9 0.68-0.92 1.36-1.88 2.040-2.76 0.68-0.84 1.34-1.7 2.060-2.52 5.58-6.64 12.42-12.6 20.48-16.8 8.020-4.22 17.28-6.5 26.44-6.16 9.16 0.28 18.1 3.040 25.78 7.76 7.66 4.72 14.18 11.42 18.32 19.58 2.060 4.080 3.54 8.52 4.18 13.1 0.66 4.54 0.46 9.4-0.42 13.7-0.8 4.24-2.060 8.5-4 12.56-1.92 4.060-4.52 7.94-7.84 11.18-3.3 3.26-7.32 5.88-11.66 7.56s-9 2.46-13.58 2.32c-9.14-0.28-18.2-4.060-24.48-11.020-3.14-3.44-5.46-7.68-6.66-12.18-1.22-4.5-1.32-9.18-0.64-13.56 0.4-2.54 2.76-4.32 5.32-3.98 2.6 0.34 4.44 2.72 4.12 5.34-0.86 6.58 1 12.96 5.4 17.42 4.3 4.5 10.78 7.020 17.12 6.98 6.38 0 12.46-2.6 16.72-7.14 4.32-4.5 6.84-10.86 7.88-17.62 1.060-6.44-0.24-12.7-3.4-18.28-3.14-5.56-8.060-10.2-13.76-13.34-5.7-3.16-12.18-4.78-18.54-4.68-6.38 0.080-12.62 1.92-18.18 5.18-5.58 3.24-10.5 7.88-14.64 13.3-0.54 0.66-1.020 1.38-1.52 2.060-0.48 0.68-0.88 1.34-1.32 2l-1.18 2.040c-0.34 0.7-0.72 1.38-1.040 2.1-1.3 2.84-2.22 5.8-2.76 8.82-1.1 6.060-0.62 12.44 1.14 18.56 1.8 6.1 4.82 11.96 8.84 17.060 7.96 10.28 19.62 17.5 31.86 19.6 6.12 1.080 12.38 0.94 18.48-0.38 6.1-1.3 12.040-3.78 17.68-7.060 2.8-1.68 5.54-3.58 8.18-5.62 1.32-1.040 2.62-2.1 3.88-3.24 0.66-0.56 1.28-1.1 1.8-1.62 0.56-0.5 1.1-1.080 1.66-1.62 4.4-4.52 8.58-10.2 12.64-16.3 8.14-12.26 16.020-26.12 25.86-39.5 9.78-13.38 21.82-26.5 36.86-36.46 7.48-4.98 15.62-9.14 24.060-12.32 8.46-3.16 17.2-5.38 25.92-6.72 4.36-0.66 8.74-1.18 13.080-1.44 2.18-0.18 4.36-0.24 6.5-0.32l6.2-0.080c8.26-0.14 16.58 0.24 24.9 0.8 16.64 1.42 33.38 4.22 49.74 9.26 16.36 4.96 32.36 11.98 47.2 21.38 3.54 2.24 7.020 4.64 10.4 7.16-0.24-0.66-0.46-1.32-0.72-1.96-5.8-15.28-13.74-29.44-23.98-41.020-10.22-11.62-22.82-20.44-37.26-25.74-6.74-2.7-13.72-4.28-21.16-4.62-7.44-0.36-15.32 0.5-23.72 2.1-8.4 1.56-17.26 3.88-27.020 5.7-4.88 0.9-10 1.64-15.36 1.94-5.36 0.28-10.98 0.12-16.6-0.86-5.62-0.96-11.16-2.72-16.24-5.18-5.1-2.42-9.7-5.5-13.84-8.86-2.040-1.7-4.020-3.44-5.86-5.26-0.9-0.84-1.96-2.040-2.92-3.040-0.98-1.060-1.82-2.2-2.72-3.3-3.42-4.52-6.020-9.4-7.98-14.38-3.92-10-5.36-20.46-5.020-30.66 0.18-5.1 0.82-10.16 1.88-15.1 1.1-4.94 2.62-9.74 4.54-14.38 1.88-4.64 4.24-9.060 6.9-13.24 1.3-2.12 2.8-4.1 4.24-6.1 1.56-1.92 3.060-3.86 4.76-5.64 6.56-7.32 14.4-13.28 22.64-18.16 2.080-1.22 4.82-0.7 6.28 1.3 1.54 2.12 1.080 5.1-1.060 6.66l-0.1 0.060c-7.040 5.12-13.42 11.040-18.46 17.88-1.32 1.66-2.44 3.46-3.62 5.22-1.060 1.82-2.18 3.6-3.080 5.5-1.9 3.74-3.52 7.6-4.7 11.58-1.2 3.96-2.080 8.020-2.58 12.080-0.48 4.080-0.6 8.18-0.34 12.22 0.48 8.060 2.46 15.98 5.92 22.74 1.72 3.38 3.82 6.44 6.2 9 0.62 0.6 1.2 1.28 1.84 1.82 0.68 0.56 1.16 1.080 2.020 1.72 1.54 1.26 3.12 2.4 4.72 3.48 6.42 4.26 13 6.7 19.88 7.14 6.9 0.5 14.36-0.9 22.44-3.2s16.7-5.44 26.080-8.16c9.36-2.72 19.62-5.020 30.5-5.56 10.86-0.6 22.2 0.72 32.8 3.84 10.14 3.16 19.98 7.66 29.060 13.32 9.1 5.66 17.44 12.48 24.8 20.040 14.78 15.18 25.74 33.060 33.84 51.58 0.080 0.16 0.14 0.32 0.2 0.48 0.080-0.16 0.14-0.32 0.2-0.48 8.1-18.52 19.060-36.4 33.84-51.58 7.38-7.56 15.7-14.38 24.8-20.040s18.94-10.16 29.060-13.32c10.6-3.12 21.94-4.44 32.8-3.84 10.88 0.54 21.14 2.84 30.5 5.56 9.38 2.72 18 5.86 26.080 8.16 8.080 2.32 15.56 3.7 22.44 3.2 6.88-0.44 13.48-2.88 19.88-7.14 1.58-1.080 3.18-2.22 4.72-3.48 0.86-0.64 1.32-1.16 2.020-1.72 0.64-0.54 1.2-1.22 1.84-1.82 2.38-2.56 4.48-5.64 6.2-9 3.46-6.76 5.42-14.68 5.92-22.74 0.24-4.040 0.14-8.14-0.34-12.22-0.52-4.080-1.38-8.12-2.58-12.080-1.18-3.98-2.8-7.84-4.7-11.58-0.9-1.9-2.020-3.68-3.080-5.5-1.18-1.74-2.3-3.54-3.62-5.22-5.040-6.84-11.42-12.76-18.46-17.88l-0.1-0.080c-1.96-1.44-2.54-4.14-1.28-6.26 1.34-2.26 4.26-3.020 6.52-1.68 8.26 4.88 16.080 10.82 22.64 18.16 1.7 1.78 3.2 3.74 4.76 5.64 1.44 2 2.94 3.98 4.24 6.1 2.66 4.18 5.020 8.6 6.9 13.24 1.9 4.64 3.44 9.44 4.54 14.38 1.080 4.94 1.7 10 1.88 15.1 0.34 10.2-1.1 20.66-5.020 30.66-1.96 5-4.58 9.86-7.98 14.38-0.9 1.1-1.74 2.24-2.72 3.3-0.96 1.020-2.020 2.22-2.92 3.040-1.84 1.82-3.8 3.58-5.86 5.26-4.14 3.36-8.74 6.44-13.84 8.86-5.080 2.46-10.62 4.2-16.24 5.18s-11.24 1.14-16.6 0.86c-5.36-0.3-10.48-1.040-15.36-1.94-9.76-1.82-18.62-4.14-27.020-5.7-8.4-1.6-16.28-2.46-23.72-2.1-7.44 0.34-14.4 1.92-21.16 4.62-14.44 5.28-27.040 14.12-37.26 25.74-10.24 11.6-18.18 25.76-23.98 41.020-0.24 0.64-0.48 1.32-0.72 1.96 3.4-2.52 6.86-4.92 10.4-7.16 14.86-9.4 30.84-16.42 47.2-21.38 16.36-5.040 33.1-7.84 49.74-9.26 8.32-0.56 16.64-0.94 24.9-0.8l6.2 0.080c2.14 0.080 4.32 0.14 6.5 0.32 4.34 0.28 8.72 0.78 13.080 1.44 8.74 1.34 17.46 3.56 25.92 6.72 8.44 3.18 16.58 7.34 24.060 12.32 15.060 9.96 27.1 23.1 36.86 36.46 9.84 13.38 17.72 27.24 25.86 39.5 4.060 6.1 8.24 11.76 12.64 16.3 0.56 0.54 1.1 1.12 1.66 1.62 0.52 0.5 1.14 1.060 1.8 1.62 1.26 1.14 2.58 2.18 3.88 3.24 2.64 2.040 5.38 3.94 8.18 5.62 5.62 3.3 11.56 5.76 17.68 7.060 6.1 1.32 12.36 1.46 18.48 0.38 12.24-2.1 23.9-9.32 31.86-19.6 4.020-5.1 7.040-10.96 8.84-17.060 1.76-6.1 2.24-12.48 1.14-18.56-0.56-3.040-1.48-6-2.76-8.82-0.32-0.72-0.7-1.4-1.040-2.1l-1.18-2.040c-0.44-0.66-0.84-1.32-1.32-2-0.52-0.68-1-1.4-1.52-2.060-4.14-5.42-9.060-10.060-14.64-13.3-5.56-3.26-11.8-5.1-18.18-5.18-6.36-0.12-12.84 1.52-18.54 4.68-5.7 3.14-10.62 7.78-13.76 13.34-3.16 5.58-4.48 11.84-3.4 18.28 1.040 6.76 3.54 13.12 7.88 17.62 4.26 4.54 10.34 7.14 16.72 7.14 6.34 0.040 12.82-2.48 17.12-6.98 4.4-4.44 6.24-10.84 5.4-17.42-0.32-2.56 1.44-4.92 3.98-5.32 2.6-0.4 5.040 1.38 5.44 3.98 0.68 4.38 0.58 9.060-0.64 13.56-1.2 4.5-3.52 8.74-6.66 12.18-6.28 6.94-15.32 10.74-24.48 11.020-4.58 0.14-9.24-0.62-13.58-2.32-4.34-1.68-8.36-4.3-11.66-7.56-3.32-3.26-5.92-7.12-7.84-11.18-1.94-4.060-3.2-8.32-4-12.56-0.88-4.3-1.080-9.16-0.42-13.7 0.64-4.6 2.12-9.020 4.18-13.1 4.14-8.18 10.66-14.88 18.32-19.58 7.66-4.72 16.62-7.48 25.78-7.76 9.16-0.32 18.42 1.94 26.44 6.16 8.060 4.2 14.9 10.16 20.48 16.8 0.72 0.82 1.36 1.68 2.060 2.52 0.68 0.86 1.36 1.84 2.040 2.76 0.64 0.96 1.28 1.92 1.88 2.9 0.58 1 1.18 2 1.7 3.040 2.16 4.12 3.82 8.54 4.88 13.080 2.28 9.080 2.040 18.62-0.040 27.54z" />
<glyph unicode="&#xe931;" glyph-name="tesseract" d="M299.576 531.98l128.438 128.438 128.438-128.438-128.438-128.438-128.438 128.438zM467.536 699.938l128.438 128.438 128.438-128.438-128.438-128.438-128.438 128.438zM131.617 364.022l128.438 128.438 128.438-128.438-128.438-128.438-128.438 128.438zM467.534 364.020l128.438 128.438 128.438-128.438-128.438-128.438-128.438 128.438zM635.492 196.061l128.438 128.438 128.438-128.438-128.438-128.438-128.438 128.438z" />
<glyph unicode="&#xe932;" glyph-name="layers" d="M895.98 322.96c0-24.12-13-46.34-33.86-58.52l-314.84-183.16c-21.12-12.2-47.14-12.2-68.28 0l-317 182.88c-20.86 12.2-33.86 34.42-33.86 58.52v0.82c0 24.12 13 46.34 33.86 58.52l32.5 18.96 284.5-164.2c21.14-12.2 47.16-12.2 68.28 0l282.32 164.2 32.26-18.7c21.38-12.18 34.12-34.94 34.12-59.32zM861.96 631.78l-316.9 182.96c-21.12 12.2-47.16 12.16-68.24-0.1l-314.94-183.020c-20.9-12.14-33.78-34.42-33.88-58.58v0c-0.1-24.42 12.88-47.020 34.040-59.24l316.9-182.96c21.12-12.2 47.16-12.16 68.24 0.1l314.94 183.020c20.88 12.14 33.78 34.42 33.88 58.58v0c0.1 24.42-12.9 47.020-34.040 59.24z" />
<glyph unicode="&#xe933;" glyph-name="stop" d="M836 64h-648c-33.14 0-60 26.86-60 60v648c0 33.14 26.86 60 60 60h648c33.14 0 60-26.86 60-60v-648c0-33.14-26.86-60-60-60z" />
<glyph unicode="&#xe934;" glyph-name="mirage-eye" d="M154.1 442.3c14.4 0 26.080 11.68 26.080 26.1 0 14.4-11.68 26.080-26.080 26.080s-26.1-11.68-26.1-26.080c0-14.4 11.68-26.1 26.1-26.1zM869.9 442.3c14.4 0 26.1 11.68 26.1 26.1 0 14.4-11.68 26.080-26.1 26.080-14.4 0-26.080-11.68-26.080-26.080s11.68-26.1 26.080-26.1zM869.9 411.58c-13.76 0-24.9-11.14-24.9-24.9 0-17.12-13.92-31.060-31.040-31.060s-31.040 13.94-31.040 31.060v124.28h18.14c13.76 0 24.9 11.14 24.9 24.9s-11.14 24.9-24.9 24.9h-39.9c-17.74 18.78-63.64 63.26-125.66 93.66-23.9 11.7-50.2 21.32-78.18 26.6-14.7 2.68-29.84 4.24-45.32 4.24s-30.62-1.54-45.32-4.24c-27.98-5.28-54.28-14.9-78.18-26.6-62-30.4-107.92-74.9-125.66-93.66h-39.9c-13.76 0-24.9-11.14-24.9-24.9s11.14-24.9 24.9-24.9h18.14v-124.28c0-17.12-13.92-31.060-31.040-31.060s-31.040 13.94-31.040 31.060c0 13.76-11.14 24.9-24.9 24.9s-24.9-11.14-24.9-24.9c0-44.58 36.26-80.86 80.84-80.86s80.84 36.28 80.84 80.86v97.22c28.78-25.56 73.020-58.8 126.5-79.12v-113.18c0-17.12-13.94-31.060-31.060-31.060s-31.040 13.94-31.040 31.060c0 13.76-11.14 24.9-24.9 24.9s-24.9-11.14-24.9-24.9c0-44.58 36.26-80.86 80.84-80.86s80.86 36.28 80.86 80.86v99.1c14.52-2.68 29.48-4.26 44.82-4.26s30.3 1.58 44.82 4.26v-99.1c0-44.58 36.26-80.86 80.84-80.86s80.84 36.28 80.84 80.86c0 13.76-11.14 24.9-24.9 24.9s-24.9-11.14-24.9-24.9c0-17.12-13.92-31.060-31.040-31.060s-31.040 13.94-31.040 31.060v113.2c53.48 20.32 97.72 53.54 126.48 79.12v-97.24c0-44.58 36.26-80.86 80.84-80.86s80.84 36.28 80.84 80.86c0.020 13.74-11.12 24.9-24.88 24.9zM469.86 630.76c0 0 0.020 0 0.020 0-1.72-4.76-2.72-9.88-2.72-15.24 0-24.76 20.060-44.82 44.82-44.82s44.82 20.060 44.82 44.82c0 5.36-0.98 10.48-2.72 15.24 0 0 0.020 0 0.020 0 12.9-2.78 25.44-6.72 37.44-11.5 0.060-1.24 0.1-2.48 0.1-3.74 0-43.92-35.76-79.68-79.68-79.68s-79.68 35.76-79.68 79.68c0 1.3 0.040 2.58 0.1 3.84 12.080 4.72 24.58 8.66 37.48 11.4zM512 436.24c-90.88 0-171.060 67.78-203.68 99.64 15.64 15.34 42.24 38.94 75.8 59.32 9.76-61.8 63.4-109.16 127.88-109.16 64.44 0 118.020 47.3 127.84 109.020 33.56-20.32 60.16-43.92 75.84-59.22-32.68-31.88-112.8-99.6-203.68-99.6z" />
<glyph unicode="&#xe935;" glyph-name="mirage" d="M197.18 265.74h-1.4l-27.62 67.32h-40.16v-118.86h31.58v69.18h0.92l26.48-68.26h19.020l26.48 67.8h0.92v-68.72h31.58v118.86h-40.16zM304.82 333.060h32.26v-118.88h-32.26v118.88zM466.68 271.14c3.78 5.84 5.66 13.020 5.66 21.54 0 8.44-1.84 15.66-5.52 21.7s-8.82 10.66-15.44 13.86c-6.62 3.22-14.34 4.82-23.16 4.82h-51.3v-118.88h32.26v39.24h11.18l20.86-39.24h35.060l-24.22 44.46c6.16 2.98 11.12 7.060 14.62 12.5zM409.2 307.3h11.38c3.8 0 7.020-0.52 9.72-1.54 2.68-1.040 4.76-2.62 6.22-4.76 1.44-2.14 2.18-4.92 2.18-8.32 0-3.38-0.72-6.1-2.18-8.18s-3.52-3.6-6.22-4.56c-2.7-0.96-5.94-1.42-9.72-1.42h-11.38v28.78zM545.86 333.060l-39.24-118.88h34.82l6.88 22.76h39.2l6.88-22.76h34.82l-39.24 118.88h-44.12zM555.6 261.1l11.84 39.24h0.94l11.84-39.24h-24.62zM718.020 257.62h21.52c-0.1-3.3-0.84-6.22-2.36-8.7-1.62-2.62-4.080-4.66-7.34-6.1-3.28-1.42-7.36-2.14-12.28-2.14-5.58 0-10.24 1.32-13.98 3.94-3.76 2.64-6.58 6.42-8.48 11.38s-2.84 10.92-2.84 17.88c0 6.9 1 12.76 2.98 17.64 2 4.88 4.9 8.62 8.72 11.2 3.82 2.6 8.42 3.9 13.84 3.9 2.52 0 4.82-0.28 6.94-0.84 2.1-0.56 3.96-1.4 5.58-2.5 1.6-1.1 2.94-2.44 4.040-4 1.080-1.56 1.88-3.38 2.38-5.42h32.62c-0.62 5.96-2.36 11.44-5.22 16.42-2.86 5-6.62 9.32-11.28 12.98s-10.020 6.48-16.080 8.48c-6.060 1.98-12.6 2.98-19.64 2.98-8 0-15.52-1.34-22.52-4.040s-13.18-6.66-18.52-11.9c-5.34-5.24-9.52-11.66-12.5-19.24-3-7.58-4.5-16.28-4.5-26.12 0-12.54 2.44-23.36 7.34-32.44 4.9-9.1 11.72-16.1 20.46-21.020s18.9-7.36 30.48-7.36c10.36 0 19.58 2.040 27.6 6.12s14.34 9.96 18.92 17.64c4.58 7.68 6.88 16.94 6.88 27.78v16.48h-52.7v-23zM896 307.060v26h-85.66v-118.86h85.42v26h-53.16v20.44h49v26h-49v20.42zM294.020 535.48c8.78 0 15.88 7.12 15.88 15.9s-7.12 15.88-15.88 15.88-15.9-7.12-15.9-15.88c0-8.8 7.12-15.9 15.9-15.9zM729.98 535.48c8.78 0 15.9 7.12 15.9 15.9s-7.12 15.88-15.9 15.88c-8.78 0-15.88-7.12-15.88-15.88 0-8.8 7.1-15.9 15.88-15.9zM729.98 516.76c-8.38 0-15.16-6.8-15.16-15.16 0-10.42-8.48-18.92-18.92-18.92-10.42 0-18.92 8.48-18.92 18.92v75.68h11.060c8.38 0 15.16 6.78 15.16 15.16s-6.8 15.16-15.16 15.16h-24.3c-10.8 11.44-38.76 38.52-76.52 57.040-14.56 7.12-30.58 12.98-47.62 16.2-8.94 1.64-18.16 2.58-27.6 2.58s-18.66-0.94-27.6-2.58c-17.040-3.22-33.060-9.060-47.62-16.2-37.76-18.52-65.72-45.62-76.52-57.040h-24.3c-8.38 0-15.16-6.8-15.16-15.16 0-8.38 6.8-15.16 15.16-15.16h11.060v-75.68c0-10.42-8.48-18.92-18.92-18.92-10.42 0-18.92 8.48-18.92 18.92 0 8.38-6.8 15.16-15.16 15.16-8.38 0-15.16-6.8-15.16-15.16 0-27.16 22.080-49.24 49.24-49.24s49.24 22.1 49.24 49.24v59.2c17.52-15.58 44.48-35.8 77.040-48.18v-68.94c0-10.42-8.48-18.92-18.92-18.92-10.42 0-18.92 8.48-18.92 18.92 0 8.38-6.8 15.16-15.16 15.16-8.38 0-15.16-6.8-15.16-15.16 0-27.16 22.080-49.24 49.24-49.24s49.24 22.1 49.24 49.24v60.36c8.84-1.64 17.96-2.6 27.3-2.6s18.46 0.96 27.3 2.6v-60.36c0-27.16 22.080-49.24 49.24-49.24s49.24 22.1 49.24 49.24c0 8.38-6.78 15.16-15.16 15.16s-15.16-6.8-15.16-15.16c0-10.42-8.48-18.92-18.92-18.92-10.42 0-18.92 8.48-18.92 18.92v68.94c32.56 12.38 59.52 32.62 77.040 48.18v-59.22c0-27.16 22.080-49.24 49.24-49.24s49.24 22.1 49.24 49.24c0 8.38-6.78 15.18-15.16 15.18zM486.34 650.24c0 0 0.020 0 0 0-1.040-2.9-1.64-6.020-1.64-9.28 0-15.080 12.22-27.3 27.3-27.3s27.3 12.22 27.3 27.3c0 3.26-0.6 6.38-1.66 9.28 0 0 0 0 0.020 0 7.86-1.7 15.5-4.1 22.8-7 0.040-0.76 0.060-1.52 0.060-2.28 0-26.76-21.78-48.52-48.52-48.52s-48.52 21.78-48.52 48.52c0 0.78 0.020 1.58 0.060 2.34 7.32 2.88 14.94 5.28 22.8 6.94zM512 531.78c-55.36 0-104.18 41.28-124.060 60.7 9.52 9.34 25.72 23.72 46.16 36.12 5.94-37.64 38.62-66.48 77.88-66.48 39.24 0 71.88 28.82 77.86 66.4 20.44-12.38 36.64-26.76 46.2-36.060-19.88-19.44-68.68-60.68-124.040-60.68z" />
<glyph unicode="&#xe936;" glyph-name="css" d="M413.96 301.92c3.040 2.16 6.8 3.24 11.22 3.24 2.52 0 4.8-0.36 6.78-1.060 2-0.72 3.7-1.72 5.1-3.040s2.52-2.88 3.34-4.68c0.8-1.8 1.3-3.82 1.48-6.020h26.78c-0.52 6.040-1.94 11.4-4.34 16.080-2.36 4.68-5.5 8.64-9.4 11.84-3.88 3.2-8.42 5.64-13.58 7.32s-10.8 2.52-16.94 2.52c-8.72 0-16.64-1.9-23.72-5.72s-12.72-9.44-16.9-16.84c-4.18-7.42-6.26-16.54-6.26-27.36 0-10.76 2.040-19.86 6.14-27.3s9.68-13.060 16.74-16.88c7.080-3.84 15.080-5.74 23.98-5.74 7.12 0 13.38 1.080 18.74 3.28 5.38 2.18 9.9 5.080 13.56 8.66s6.46 7.52 8.46 11.78c1.98 4.26 3.14 8.44 3.46 12.56l-26.78 0.2c-0.3-2.1-0.92-3.96-1.8-5.64-0.9-1.66-2.080-3.080-3.5-4.24s-3.1-2.060-5.020-2.68c-1.92-0.62-4.12-0.94-6.54-0.94-4.28 0-7.94 1.020-10.96 3.020-3.040 2.020-5.38 5.020-6.96 9.020-1.6 4-2.38 8.98-2.38 14.92 0 5.62 0.78 10.46 2.34 14.46 1.58 4.020 3.9 7.1 6.96 9.24zM552.4 277c-2.44 2.52-5.58 4.7-9.4 6.56-3.84 1.86-8.44 3.36-13.82 4.52l-7.96 1.7c-2.32 0.48-4.3 1.020-5.98 1.62s-3.040 1.28-4.12 2.020c-1.080 0.74-1.86 1.58-2.34 2.52-0.5 0.94-0.72 1.98-0.64 3.14 0.020 1.42 0.46 2.7 1.28 3.8s2.1 2 3.84 2.62c1.72 0.66 3.94 0.98 6.66 0.98 4.28 0 7.44-0.88 9.56-2.66 2.1-1.78 3.28-4.24 3.52-7.42h25.26c-0.040 6.38-1.62 11.92-4.72 16.68-3.12 4.76-7.54 8.46-13.26 11.060-5.74 2.64-12.52 3.94-20.36 3.94-7.68 0-14.5-1.3-20.42-3.88-5.92-2.6-10.56-6.22-13.9-10.84s-5-10.040-4.96-16.2c-0.040-7.6 2.42-13.58 7.38-17.96 4.94-4.38 11.74-7.5 20.34-9.38l9.66-2.080c3.62-0.8 6.46-1.64 8.6-2.54 2.12-0.9 3.64-1.92 4.56-3.040 0.94-1.12 1.42-2.44 1.46-3.92-0.040-1.58-0.54-3-1.52-4.22-0.98-1.24-2.42-2.2-4.34-2.88-1.88-0.7-4.26-1.040-7.060-1.040-3.34 0-6.24 0.52-8.66 1.56-2.4 1.040-4.3 2.58-5.62 4.6s-2.060 4.52-2.24 7.48h-25.040c0.020-8.12 1.78-14.78 5.24-20 3.46-5.2 8.34-9.040 14.6-11.54 6.3-2.5 13.64-3.76 22.1-3.76 8.22 0 15.26 1.16 21.14 3.46s10.38 5.68 13.56 10.1c3.16 4.44 4.76 9.84 4.8 16.24-0.040 3.7-0.64 7.12-1.8 10.24-1.2 3.18-2.98 6-5.4 8.52zM641.4 277c-2.44 2.52-5.56 4.7-9.4 6.56s-8.44 3.36-13.8 4.52l-7.98 1.7c-2.32 0.48-4.3 1.020-5.96 1.62-1.68 0.6-3.060 1.28-4.14 2.020s-1.84 1.58-2.34 2.52c-0.48 0.94-0.7 1.98-0.64 3.14 0.040 1.42 0.46 2.7 1.3 3.8 0.8 1.1 2.080 2 3.82 2.62 1.74 0.66 3.94 0.98 6.66 0.98 4.28 0 7.46-0.88 9.56-2.66s3.3-4.24 3.54-7.42h25.24c-0.020 6.38-1.6 11.92-4.72 16.68s-7.54 8.46-13.26 11.060c-5.74 2.64-12.52 3.94-20.36 3.94-7.68 0-14.5-1.3-20.42-3.88-5.92-2.6-10.56-6.22-13.9-10.84s-4.98-10.040-4.96-16.2c-0.020-7.6 2.42-13.58 7.4-17.96 4.94-4.38 11.72-7.5 20.32-9.38l9.68-2.080c3.6-0.8 6.46-1.64 8.58-2.54s3.64-1.92 4.58-3.040c0.92-1.12 1.4-2.44 1.44-3.92-0.040-1.58-0.54-3-1.52-4.22-0.98-1.24-2.42-2.2-4.32-2.88-1.9-0.7-4.26-1.040-7.060-1.040-3.36 0-6.26 0.52-8.66 1.56-2.42 1.040-4.3 2.58-5.62 4.6s-2.080 4.52-2.24 7.48h-25.060c0.040-8.12 1.8-14.78 5.26-20 3.44-5.2 8.34-9.040 14.6-11.54 6.28-2.5 13.62-3.76 22.080-3.76 8.24 0 15.28 1.16 21.14 3.46 5.88 2.3 10.4 5.68 13.56 10.1 3.18 4.44 4.78 9.84 4.8 16.24-0.020 3.7-0.62 7.12-1.78 10.24-1.18 3.18-3 6-5.42 8.52zM735.66 832h-322.82c-12.86 0-25.2-5.12-34.3-14.22l-127.34-127.46c-9.080-9.1-14.18-21.42-14.18-34.28v-540.7c0-28.36 22.98-51.34 51.34-51.34h447.34c28.36 0 51.34 22.98 51.34 51.34v665.32c-0.040 28.36-23.020 51.34-51.38 51.34zM281.54 656.040c0 1.040 0.42 2.060 1.16 2.8l127.32 127.46c0.74 0.74 1.76 1.16 2.82 1.16h28.52v-139.12c0-8.48-6.9-15.38-15.38-15.38h-144.42v23.080zM742.46 179.26h-460.92v409.16h144.42c33.040 0 59.92 26.88 59.92 59.92v139.12h249.78c3.74 0 6.8-3.060 6.8-6.8v-601.4z" />
<glyph unicode="&#xe937;" glyph-name="file-unknown" d="M735.66 832h-322.82c-12.86 0-25.2-5.12-34.3-14.22l-127.34-127.46c-9.080-9.1-14.18-21.42-14.18-34.28v-540.7c0-28.36 22.98-51.34 51.34-51.34h447.34c28.36 0 51.34 22.98 51.34 51.34v665.32c-0.040 28.36-23.020 51.34-51.38 51.34zM281.54 656.040c0 1.040 0.42 2.060 1.16 2.8l127.32 127.46c0.74 0.74 1.76 1.16 2.82 1.16h28.52v-139.12c0-8.48-6.9-15.38-15.38-15.38h-144.42v23.080zM742.46 179.26h-460.92v409.16h144.42c33.040 0 59.92 26.88 59.92 59.92v139.12h249.78c3.74 0 6.8-3.060 6.8-6.8v-601.4zM354.060 481.060h319.52v-44.54h-319.52v44.54zM354.060 389.58h319.52v-44.54h-319.52v44.54zM354.060 298.080h319.52v-44.54h-319.52v44.54z" />
<glyph unicode="&#xe938;" glyph-name="html" d="M383.24 288.84h-34.92v37.96h-26.4v-97.18h26.4v37.96h34.92v-37.96h26.36v97.18h-26.36zM419.48 305.54h29.24v-75.92h25.98v75.92h29.24v21.26h-84.46zM570.36 271.76h-1.12l-22.6 55.040h-32.82v-97.18h25.8v56.56h0.76l21.64-55.8h15.56l21.64 55.42h0.76v-56.18h25.8v97.18h-32.84zM664.68 326.8h-26.36v-97.18h65.68v21.26h-39.32zM735.66 832h-322.82c-12.86 0-25.2-5.12-34.3-14.22l-127.34-127.46c-9.080-9.1-14.18-21.42-14.18-34.28v-540.7c0-28.36 22.98-51.34 51.34-51.34h447.34c28.36 0 51.34 22.98 51.34 51.34v665.32c-0.040 28.36-23.020 51.34-51.38 51.34zM281.54 656.040c0 1.040 0.42 2.060 1.16 2.8l127.32 127.46c0.74 0.74 1.76 1.16 2.82 1.16h28.52v-139.12c0-8.48-6.9-15.38-15.38-15.38h-144.42v23.080zM742.46 179.26h-460.92v409.16h144.42c33.040 0 59.92 26.88 59.92 59.92v139.12h249.78c3.74 0 6.8-3.060 6.8-6.8v-601.4z" />
<glyph unicode="&#xe939;" glyph-name="js" d="M474.5 260.18c-0.020-2.5-0.38-4.6-1.080-6.28-0.7-1.7-1.72-2.98-3.060-3.82-1.34-0.86-3-1.28-4.96-1.28-1.92 0-3.56 0.42-4.9 1.26-1.34 0.82-2.38 2.080-3.14 3.78-0.74 1.68-1.16 3.72-1.26 6.16h-26.38c-0.020-7.46 1.5-13.54 4.56-18.18 3.060-4.68 7.18-8.080 12.34-10.26 5.16-2.16 10.86-3.24 17.080-3.24 7.18 0 13.54 1.34 19.060 4.020s9.86 6.4 13.020 11.2c3.14 4.8 4.74 10.34 4.76 16.68v66.58h-26v-66.62zM584.84 277c-2.44 2.52-5.58 4.7-9.4 6.56-3.84 1.86-8.44 3.36-13.82 4.52l-7.96 1.7c-2.32 0.48-4.3 1.020-5.98 1.62s-3.040 1.28-4.12 2.020c-1.080 0.74-1.86 1.58-2.34 2.52-0.5 0.94-0.72 1.98-0.64 3.14 0.020 1.42 0.46 2.7 1.28 3.8s2.1 2 3.84 2.62c1.72 0.66 3.94 0.98 6.66 0.98 4.28 0 7.44-0.88 9.56-2.66 2.1-1.78 3.28-4.24 3.52-7.42h25.26c-0.040 6.38-1.62 11.92-4.72 16.68-3.12 4.76-7.54 8.46-13.26 11.060-5.74 2.64-12.52 3.94-20.36 3.94-7.68 0-14.5-1.3-20.42-3.88-5.92-2.6-10.56-6.22-13.9-10.84s-5-10.040-4.96-16.2c-0.040-7.6 2.42-13.58 7.38-17.96 4.94-4.38 11.74-7.5 20.34-9.38l9.66-2.080c3.62-0.8 6.48-1.64 8.6-2.54s3.64-1.92 4.58-3.040c0.92-1.12 1.4-2.44 1.44-3.92-0.040-1.58-0.54-3-1.52-4.22-0.98-1.24-2.42-2.2-4.32-2.88-1.9-0.7-4.28-1.040-7.080-1.040-3.34 0-6.24 0.52-8.66 1.56-2.4 1.040-4.3 2.58-5.62 4.6s-2.060 4.52-2.24 7.48h-25.040c0.020-8.12 1.78-14.78 5.24-20 3.46-5.2 8.34-9.040 14.6-11.54 6.3-2.5 13.64-3.76 22.1-3.76 8.22 0 15.26 1.16 21.14 3.46s10.4 5.68 13.56 10.1c3.16 4.44 4.76 9.84 4.8 16.24-0.040 3.7-0.64 7.12-1.8 10.24-1.18 3.18-2.98 6-5.4 8.52zM735.66 832h-322.82c-12.86 0-25.2-5.12-34.3-14.22l-127.34-127.46c-9.080-9.1-14.18-21.42-14.18-34.28v-540.7c0-28.36 22.98-51.34 51.34-51.34h447.34c28.36 0 51.34 22.98 51.34 51.34v665.32c-0.040 28.36-23.020 51.34-51.38 51.34zM281.54 656.040c0 1.040 0.42 2.060 1.16 2.8l127.32 127.46c0.74 0.74 1.76 1.16 2.82 1.16h28.52v-139.12c0-8.48-6.9-15.38-15.38-15.38h-144.42v23.080zM742.46 179.26h-460.92v409.16h144.42c33.040 0 59.92 26.88 59.92 59.92v139.12h249.78c3.74 0 6.8-3.060 6.8-6.8v-601.4z" />
<glyph unicode="&#xe93a;" glyph-name="json" d="M373.080 260.18c-0.040-2.5-0.4-4.6-1.1-6.28-0.7-1.7-1.72-2.98-3.060-3.82-1.34-0.86-3-1.28-4.96-1.28-1.92 0-3.56 0.42-4.9 1.26-1.34 0.82-2.38 2.080-3.12 3.78-0.76 1.68-1.18 3.72-1.28 6.16h-26.38c-0.040-7.46 1.48-13.54 4.54-18.18 3.080-4.68 7.18-8.080 12.34-10.26 5.16-2.16 10.86-3.24 17.1-3.24 7.18 0 13.54 1.34 19.040 4.020 5.52 2.68 9.86 6.4 13.020 11.2 3.14 4.8 4.74 10.34 4.78 16.68v66.58h-26v-66.62zM483.38 277c-2.44 2.52-5.56 4.7-9.4 6.56s-8.44 3.36-13.82 4.52l-7.96 1.7c-2.32 0.48-4.3 1.020-5.96 1.62-1.68 0.6-3.060 1.28-4.14 2.020s-1.84 1.58-2.34 2.52c-0.48 0.94-0.7 1.98-0.64 3.14 0.040 1.42 0.46 2.7 1.28 3.8 0.8 1.1 2.080 2 3.82 2.62 1.74 0.66 3.94 0.98 6.66 0.98 4.28 0 7.46-0.88 9.56-2.66s3.3-4.24 3.54-7.42h25.24c-0.040 6.38-1.6 11.92-4.72 16.68s-7.54 8.46-13.26 11.060c-5.74 2.64-12.52 3.94-20.36 3.94-7.68 0-14.5-1.3-20.42-3.88-5.92-2.6-10.56-6.22-13.9-10.84s-4.98-10.040-4.96-16.2c-0.020-7.6 2.42-13.58 7.4-17.96 4.94-4.38 11.72-7.5 20.32-9.38l9.68-2.080c3.6-0.8 6.46-1.64 8.58-2.54s3.64-1.92 4.58-3.040c0.92-1.12 1.4-2.44 1.44-3.92-0.040-1.58-0.54-3-1.52-4.22-0.98-1.24-2.42-2.2-4.32-2.88-1.9-0.7-4.26-1.040-7.080-1.040-3.34 0-6.24 0.52-8.64 1.56-2.42 1.040-4.32 2.58-5.62 4.6-1.34 2.020-2.080 4.52-2.24 7.48h-25.060c0.040-8.12 1.8-14.78 5.24-20 3.46-5.2 8.34-9.040 14.62-11.54s13.62-3.76 22.080-3.76c8.22 0 15.28 1.16 21.14 3.46 5.88 2.3 10.4 5.68 13.56 10.1 3.16 4.44 4.76 9.84 4.8 16.24-0.040 3.7-0.62 7.12-1.78 10.24-1.16 3.18-2.96 6-5.4 8.52zM571.4 322.4c-7.14 3.82-15.12 5.72-23.9 5.72-8.86 0-16.84-1.9-23.98-5.72s-12.8-9.44-16.98-16.84c-4.2-7.42-6.3-16.54-6.3-27.36 0-10.76 2.1-19.84 6.3-27.26 4.18-7.42 9.84-13.040 16.98-16.9 7.14-3.84 15.12-5.76 23.98-5.76 8.8 0 16.76 1.9 23.9 5.72 7.16 3.82 12.84 9.42 17.040 16.84 4.22 7.42 6.32 16.54 6.32 27.36s-2.1 19.94-6.32 27.36c-4.2 7.42-9.88 13.040-17.040 16.84zM565.32 263.46c-1.54-4-3.8-7.020-6.8-9.1-2.98-2.060-6.66-3.1-11.020-3.1s-8.040 1.040-11.020 3.1c-2.98 2.080-5.26 5.12-6.8 9.1-1.52 4-2.3 8.92-2.3 14.74s0.76 10.72 2.3 14.72c1.54 4 3.82 7.040 6.8 9.12 2.98 2.060 6.66 3.1 11.020 3.1s8.040-1.040 11.020-3.1c3-2.060 5.26-5.12 6.8-9.12 1.52-4 2.3-8.92 2.3-14.72-0.020-5.82-0.78-10.72-2.3-14.74zM664.6 275.94h-0.78l-34.52 50.86h-22.42v-97.18h26.4v51.060h0.56l35.12-51.060h22v97.18h-26.36zM735.66 832h-322.82c-12.86 0-25.2-5.12-34.3-14.22l-127.34-127.46c-9.080-9.1-14.18-21.42-14.18-34.28v-540.7c0-28.36 22.98-51.34 51.34-51.34h447.34c28.36 0 51.34 22.98 51.34 51.34v665.32c-0.040 28.36-23.020 51.34-51.38 51.34zM281.54 656.040c0 1.040 0.42 2.060 1.16 2.8l127.32 127.46c0.74 0.74 1.76 1.16 2.82 1.16h28.52v-139.12c0-8.48-6.9-15.38-15.38-15.38h-144.42v23.080zM742.46 179.26h-460.92v409.16h144.42c33.040 0 59.92 26.88 59.92 59.92v139.12h249.78c3.74 0 6.8-3.060 6.8-6.8v-601.4z" />
<glyph unicode="&#xe93b;" glyph-name="less" d="M375.92 326.8h-26.38v-97.18h65.66v21.26h-39.28zM425.82 229.62h69.86v21.26h-43.46v16.7h40.040v21.26h-40.040v16.7h43.66v21.26h-70.060zM580.76 277c-2.44 2.52-5.58 4.7-9.4 6.56-3.84 1.86-8.44 3.36-13.82 4.52l-7.96 1.7c-2.3 0.48-4.3 1.020-5.98 1.62s-3.040 1.28-4.12 2.020c-1.080 0.74-1.86 1.58-2.34 2.52s-0.72 1.98-0.64 3.14c0.020 1.42 0.46 2.7 1.28 3.8s2.1 2 3.84 2.62c1.72 0.66 3.94 0.98 6.66 0.98 4.28 0 7.44-0.88 9.56-2.66 2.1-1.78 3.28-4.24 3.52-7.42h25.26c-0.040 6.38-1.62 11.92-4.72 16.68-3.12 4.76-7.54 8.46-13.26 11.060-5.74 2.64-12.52 3.94-20.36 3.94-7.68 0-14.5-1.3-20.42-3.88-5.92-2.6-10.56-6.22-13.9-10.84s-5-10.040-4.96-16.2c-0.040-7.6 2.42-13.58 7.38-17.96 4.94-4.38 11.74-7.5 20.34-9.38l9.66-2.080c3.62-0.8 6.46-1.64 8.6-2.54 2.12-0.9 3.64-1.92 4.56-3.040 0.94-1.12 1.42-2.44 1.46-3.92-0.040-1.58-0.54-3-1.52-4.22-0.98-1.24-2.42-2.2-4.34-2.88-1.88-0.7-4.26-1.040-7.060-1.040-3.34 0-6.24 0.52-8.66 1.56-2.4 1.040-4.3 2.58-5.62 4.6s-2.060 4.52-2.24 7.48h-25.040c0.020-8.12 1.78-14.78 5.24-20 3.46-5.2 8.34-9.040 14.6-11.54 6.3-2.5 13.64-3.76 22.1-3.76 8.22 0 15.26 1.16 21.14 3.46s10.4 5.68 13.56 10.1c3.16 4.44 4.76 9.84 4.8 16.24-0.040 3.7-0.64 7.12-1.8 10.24-1.18 3.18-2.98 6-5.4 8.52zM669.76 277c-2.44 2.52-5.56 4.7-9.4 6.56s-8.44 3.36-13.8 4.52l-7.98 1.7c-2.3 0.48-4.3 1.020-5.96 1.62-1.68 0.6-3.060 1.28-4.14 2.020-1.060 0.74-1.84 1.58-2.34 2.52-0.48 0.94-0.7 1.98-0.64 3.14 0.040 1.42 0.46 2.7 1.28 3.8 0.8 1.1 2.1 2 3.82 2.62 1.74 0.66 3.94 0.98 6.66 0.98 4.28 0 7.46-0.88 9.56-2.66s3.3-4.24 3.54-7.42h25.24c-0.020 6.38-1.6 11.92-4.72 16.68s-7.54 8.46-13.26 11.060c-5.74 2.64-12.52 3.94-20.36 3.94-7.68 0-14.5-1.3-20.42-3.88-5.92-2.6-10.56-6.22-13.9-10.84s-4.98-10.040-4.96-16.2c-0.020-7.6 2.42-13.58 7.4-17.96 4.94-4.38 11.72-7.5 20.32-9.38l9.68-2.080c3.6-0.8 6.46-1.64 8.58-2.54s3.64-1.92 4.58-3.040c0.92-1.12 1.4-2.44 1.44-3.92-0.040-1.58-0.54-3-1.52-4.22-0.98-1.24-2.42-2.2-4.32-2.88-1.9-0.7-4.26-1.040-7.060-1.040-3.36 0-6.26 0.52-8.66 1.56-2.42 1.040-4.3 2.58-5.62 4.6s-2.080 4.52-2.24 7.48h-25.060c0.040-8.12 1.8-14.78 5.26-20 3.44-5.2 8.34-9.040 14.6-11.54s13.62-3.76 22.080-3.76c8.24 0 15.28 1.16 21.14 3.46 5.88 2.3 10.4 5.68 13.56 10.1 3.18 4.44 4.78 9.84 4.8 16.24-0.020 3.7-0.62 7.12-1.78 10.24-1.16 3.18-2.94 6-5.4 8.52zM735.66 832h-322.82c-12.86 0-25.2-5.12-34.3-14.22l-127.34-127.46c-9.080-9.1-14.18-21.42-14.18-34.28v-540.7c0-28.36 22.98-51.34 51.34-51.34h447.34c28.36 0 51.34 22.98 51.34 51.34v665.32c-0.040 28.36-23.020 51.34-51.38 51.34zM281.54 656.040c0 1.040 0.42 2.060 1.16 2.8l127.32 127.46c0.74 0.74 1.76 1.16 2.82 1.16h28.52v-139.12c0-8.48-6.9-15.38-15.38-15.38h-144.42v23.080zM742.46 179.26h-460.92v409.16h144.42c33.040 0 59.92 26.88 59.92 59.92v139.12h249.78c3.74 0 6.8-3.060 6.8-6.8v-601.4z" />
<glyph unicode="&#xe93c;" glyph-name="eye" d="M512 244.82c-98.82 0-193.94 31.66-275.080 91.54-61.32 45.26-93.42 90.86-94.76 92.78l-14.16 20.32 15.56 19.28c1.52 1.88 37.94 46.6 100.96 91.28 84.14 59.64 176.62 91.16 267.46 91.16s183.32-31.52 267.46-91.16c63.020-44.66 99.44-89.4 100.96-91.28l15.56-19.28-14.16-20.34c-1.34-1.92-33.44-47.54-94.76-92.78-81.1-59.88-176.22-91.52-275.040-91.52zM212.88 446.78c13.62-15.2 35.52-37.080 65.2-58.72 70.24-51.22 148.94-77.2 233.92-77.2s163.66 25.98 233.92 77.2c29.68 21.64 51.56 43.52 65.2 58.72-15.2 15.46-39.6 38.1-71.44 60.48-73.5 51.68-150.1 77.88-227.68 77.88s-154.18-26.2-227.68-77.88c-31.84-22.38-56.22-45.020-71.44-60.48zM664.86 450.46c1.36-80.82-61.18-149.16-142.68-154.16-83.78-5.12-155.84 58.62-160.98 142.4-5.12 83.78 58.62 155.84 142.4 160.98 32.84 2 63.88-6.56 89.78-22.78-2.4 0.080-4.84 0.020-7.26-0.12-46.64-2.86-82.14-42.98-79.3-89.62 2.86-46.64 42.98-82.14 89.62-79.3 29.64 1.82 54.74 18.64 68.42 42.6z" />
<glyph unicode="&#xe93d;" glyph-name="php" d="M441.34 322.52c-5.4 2.84-11.72 4.28-18.94 4.28h-41.94v-97.18h26.38v28.84h14.62c7.4 0 13.88 1.38 19.42 4.14 5.56 2.76 9.88 6.66 12.96 11.76s4.62 11.12 4.62 18.080c0 6.9-1.5 12.92-4.5 18.080s-7.2 9.16-12.62 12zM429.18 285.28c-1.2-2.020-2.88-3.58-5.080-4.68-2.2-1.080-4.86-1.64-7.94-1.64h-9.3v26.76h9.3c3.1 0 5.76-0.52 7.94-1.58 2.2-1.060 3.88-2.58 5.080-4.56 1.18-1.98 1.78-4.36 1.78-7.14 0-2.76-0.6-5.14-1.78-7.16zM529.46 288.84h-34.92v37.96h-26.38v-97.18h26.38v37.96h34.92v-37.96h26.38v97.18h-26.38zM629.24 322.52c-5.4 2.84-11.72 4.28-18.94 4.28h-41.94v-97.18h26.38v28.84h14.62c7.4 0 13.88 1.38 19.44 4.14 5.54 2.76 9.86 6.66 12.96 11.76 3.080 5.1 4.62 11.12 4.62 18.080 0 6.9-1.5 12.92-4.5 18.080-3.020 5.16-7.22 9.16-12.64 12zM617.080 285.28c-1.18-2.020-2.88-3.58-5.080-4.68-2.2-1.080-4.84-1.64-7.94-1.64h-9.3v26.76h9.3c3.1 0 5.74-0.52 7.94-1.58s3.9-2.58 5.080-4.56c1.18-1.98 1.78-4.36 1.78-7.14 0-2.76-0.6-5.14-1.78-7.16zM735.66 832h-322.82c-12.86 0-25.2-5.12-34.3-14.22l-127.34-127.46c-9.080-9.1-14.18-21.42-14.18-34.28v-540.7c0-28.36 22.98-51.34 51.34-51.34h447.34c28.36 0 51.34 22.98 51.34 51.34v665.32c-0.040 28.36-23.020 51.34-51.38 51.34zM281.54 656.040c0 1.040 0.42 2.060 1.16 2.8l127.32 127.46c0.74 0.74 1.76 1.16 2.82 1.16h28.52v-139.12c0-8.48-6.9-15.38-15.38-15.38h-144.42v23.080zM742.46 179.26h-460.92v409.16h144.42c33.040 0 59.92 26.88 59.92 59.92v139.12h249.78c3.74 0 6.8-3.060 6.8-6.8v-601.4z" />
<glyph unicode="&#xe93e;" glyph-name="sass" d="M407.2 277c-2.44 2.52-5.58 4.7-9.42 6.56-3.82 1.86-8.44 3.36-13.8 4.52l-7.96 1.7c-2.3 0.48-4.32 1.020-5.98 1.62-1.68 0.6-3.040 1.28-4.12 2.020s-1.86 1.58-2.34 2.52c-0.5 0.94-0.72 1.98-0.64 3.14 0.020 1.42 0.44 2.7 1.28 3.8 0.82 1.1 2.1 2 3.84 2.62 1.72 0.66 3.94 0.98 6.66 0.98 4.28 0 7.44-0.88 9.56-2.66 2.1-1.78 3.28-4.24 3.52-7.42h25.26c-0.040 6.38-1.62 11.92-4.74 16.68-3.1 4.76-7.52 8.46-13.26 11.060-5.72 2.64-12.5 3.94-20.34 3.94-7.68 0-14.5-1.3-20.42-3.88-5.92-2.6-10.56-6.22-13.92-10.84-3.34-4.62-4.98-10.040-4.94-16.2-0.040-7.6 2.42-13.58 7.38-17.96 4.94-4.38 11.72-7.5 20.32-9.38l9.68-2.080c3.62-0.8 6.46-1.64 8.6-2.54 2.12-0.9 3.64-1.92 4.56-3.040 0.94-1.12 1.42-2.44 1.46-3.92-0.040-1.58-0.54-3-1.52-4.22-0.98-1.24-2.42-2.2-4.34-2.88-1.88-0.7-4.26-1.040-7.060-1.040-3.34 0-6.24 0.52-8.66 1.56s-4.3 2.58-5.62 4.6-2.080 4.52-2.24 7.48h-25.040c0.020-8.12 1.78-14.78 5.24-20 3.46-5.2 8.34-9.040 14.6-11.54 6.3-2.5 13.64-3.76 22.1-3.76 8.22 0 15.26 1.16 21.14 3.46s10.38 5.68 13.56 10.1c3.16 4.44 4.76 9.84 4.8 16.24-0.040 3.7-0.64 7.12-1.8 10.24-1.2 3.18-2.98 6-5.4 8.52zM449.46 326.8l-32.080-97.18h28.48l5.62 18.6h32.040l5.62-18.6h28.46l-32.080 97.18h-36.060zM457.44 267.96l9.68 32.080h0.76l9.7-32.080h-20.14zM594.88 277c-2.42 2.52-5.56 4.7-9.4 6.56s-8.44 3.36-13.8 4.52l-7.96 1.7c-2.3 0.48-4.32 1.020-5.98 1.62-1.68 0.6-3.040 1.28-4.12 2.020s-1.86 1.58-2.34 2.52c-0.5 0.94-0.72 1.98-0.66 3.14 0.040 1.42 0.46 2.7 1.3 3.8 0.82 1.1 2.1 2 3.82 2.62 1.74 0.66 3.94 0.98 6.68 0.98 4.28 0 7.44-0.88 9.54-2.66 2.12-1.78 3.3-4.24 3.54-7.42h25.26c-0.040 6.38-1.62 11.92-4.74 16.68s-7.52 8.46-13.26 11.060c-5.72 2.64-12.52 3.94-20.34 3.94-7.7 0-14.5-1.3-20.42-3.88-5.94-2.6-10.56-6.22-13.92-10.84-3.34-4.62-4.98-10.040-4.94-16.2-0.040-7.6 2.42-13.58 7.38-17.96 4.94-4.38 11.72-7.5 20.32-9.38l9.68-2.080c3.6-0.8 6.46-1.64 8.58-2.54s3.66-1.92 4.58-3.040c0.94-1.12 1.42-2.44 1.44-3.92-0.020-1.58-0.54-3-1.5-4.22-0.98-1.24-2.42-2.2-4.34-2.88-1.88-0.7-4.26-1.040-7.060-1.040-3.34 0-6.24 0.52-8.66 1.56s-4.3 2.58-5.62 4.6-2.080 4.52-2.24 7.48h-25.060c0.040-8.12 1.8-14.78 5.26-20 3.46-5.2 8.34-9.040 14.6-11.54s13.64-3.76 22.1-3.76c8.22 0 15.26 1.16 21.14 3.46s10.38 5.68 13.56 10.1c3.16 4.44 4.76 9.84 4.8 16.24-0.040 3.7-0.64 7.12-1.8 10.24-1.18 3.18-2.96 6-5.42 8.52zM683.92 277c-2.44 2.52-5.58 4.7-9.4 6.56-3.84 1.86-8.44 3.36-13.82 4.52l-7.96 1.7c-2.3 0.48-4.3 1.020-5.96 1.62-1.7 0.6-3.060 1.28-4.14 2.020s-1.84 1.58-2.34 2.52c-0.48 0.94-0.72 1.98-0.64 3.14 0.020 1.42 0.46 2.7 1.28 3.8s2.1 2 3.84 2.62c1.72 0.66 3.94 0.98 6.66 0.98 4.28 0 7.46-0.88 9.56-2.66s3.28-4.24 3.52-7.42h25.26c-0.040 6.38-1.62 11.92-4.72 16.68-3.12 4.76-7.54 8.46-13.26 11.060-5.74 2.64-12.52 3.94-20.36 3.94-7.68 0-14.5-1.3-20.42-3.88-5.92-2.6-10.56-6.22-13.9-10.84s-5-10.040-4.96-16.2c-0.040-7.6 2.42-13.58 7.38-17.96s11.74-7.5 20.34-9.38l9.68-2.080c3.6-0.8 6.46-1.64 8.58-2.54s3.64-1.92 4.58-3.040c0.92-1.12 1.4-2.44 1.44-3.92-0.040-1.58-0.54-3-1.52-4.22-0.98-1.24-2.42-2.2-4.32-2.88-1.9-0.7-4.28-1.040-7.080-1.040-3.34 0-6.24 0.52-8.66 1.56-2.4 1.040-4.3 2.58-5.62 4.6s-2.060 4.52-2.24 7.48h-25.040c0.020-8.12 1.78-14.78 5.24-20 3.46-5.2 8.34-9.040 14.6-11.54 6.3-2.5 13.64-3.76 22.1-3.76 8.22 0 15.26 1.16 21.14 3.46s10.4 5.68 13.56 10.1c3.16 4.44 4.76 9.84 4.8 16.24-0.040 3.7-0.64 7.12-1.8 10.24-1.2 3.18-2.98 6-5.4 8.52zM735.66 832h-322.82c-12.86 0-25.2-5.12-34.3-14.22l-127.34-127.46c-9.080-9.1-14.18-21.42-14.18-34.28v-540.7c0-28.36 22.98-51.34 51.34-51.34h447.34c28.36 0 51.34 22.98 51.34 51.34v665.32c-0.040 28.36-23.020 51.34-51.38 51.34zM281.54 656.040c0 1.040 0.42 2.060 1.16 2.8l127.32 127.46c0.74 0.74 1.76 1.16 2.82 1.16h28.52v-139.12c0-8.48-6.9-15.38-15.38-15.38h-144.42v23.080zM742.46 179.26h-460.92v409.16h144.42c33.040 0 59.92 26.88 59.92 59.92v139.12h249.78c3.74 0 6.8-3.060 6.8-6.8v-601.4z" />
<glyph unicode="&#xe93f;" glyph-name="scss" d="M405.2 277c-2.44 2.52-5.58 4.7-9.42 6.56-3.82 1.86-8.44 3.36-13.8 4.52l-7.96 1.7c-2.3 0.48-4.32 1.020-5.98 1.62-1.68 0.6-3.040 1.28-4.12 2.020s-1.86 1.58-2.34 2.52c-0.5 0.94-0.72 1.98-0.64 3.14 0.020 1.42 0.44 2.7 1.28 3.8 0.82 1.1 2.1 2 3.84 2.62 1.72 0.66 3.94 0.98 6.66 0.98 4.28 0 7.44-0.88 9.56-2.66 2.1-1.78 3.28-4.24 3.52-7.42h25.26c-0.040 6.38-1.62 11.92-4.74 16.68-3.1 4.76-7.52 8.46-13.26 11.060-5.72 2.64-12.52 3.94-20.34 3.94-7.68 0-14.5-1.3-20.42-3.88-5.92-2.6-10.56-6.22-13.9-10.84s-5-10.040-4.96-16.2c-0.040-7.6 2.42-13.58 7.38-17.96 4.94-4.38 11.72-7.5 20.34-9.38l9.66-2.080c3.62-0.8 6.46-1.64 8.6-2.54 2.12-0.9 3.64-1.92 4.56-3.040 0.94-1.12 1.42-2.44 1.46-3.92-0.040-1.58-0.54-3-1.52-4.22-0.98-1.24-2.42-2.2-4.34-2.88-1.88-0.7-4.26-1.040-7.060-1.040-3.34 0-6.24 0.52-8.66 1.56-2.4 1.040-4.3 2.58-5.62 4.6s-2.080 4.52-2.24 7.48h-25.040c0.020-8.12 1.78-14.78 5.24-20 3.46-5.2 8.34-9.040 14.6-11.54 6.3-2.5 13.64-3.76 22.1-3.76 8.22 0 15.26 1.16 21.14 3.46s10.38 5.68 13.56 10.1c3.16 4.44 4.76 9.84 4.8 16.24-0.040 3.7-0.64 7.12-1.8 10.24-1.18 3.18-2.98 6-5.4 8.52zM458.44 301.92c3.060 2.16 6.8 3.24 11.22 3.24 2.54 0 4.8-0.36 6.8-1.060 2-0.72 3.7-1.72 5.1-3.040s2.52-2.88 3.34-4.68c0.78-1.8 1.28-3.82 1.48-6.020h26.76c-0.5 6.040-1.94 11.4-4.32 16.080-2.36 4.68-5.5 8.64-9.4 11.84-3.88 3.2-8.42 5.64-13.58 7.32s-10.8 2.52-16.94 2.52c-8.74 0-16.64-1.9-23.72-5.72-7.1-3.82-12.72-9.44-16.9-16.84-4.18-7.42-6.26-16.54-6.26-27.36 0-10.76 2.040-19.86 6.14-27.3s9.68-13.060 16.74-16.88c7.060-3.84 15.080-5.74 23.98-5.74 7.12 0 13.36 1.080 18.74 3.28 5.38 2.18 9.9 5.080 13.56 8.66 3.64 3.58 6.46 7.52 8.46 11.78 1.98 4.26 3.14 8.44 3.44 12.56l-26.76 0.2c-0.3-2.1-0.92-3.96-1.82-5.64-0.9-1.66-2.060-3.080-3.48-4.24s-3.1-2.060-5.020-2.68c-1.92-0.62-4.12-0.94-6.54-0.94-4.28 0-7.94 1.020-10.98 3.020-3.040 2.020-5.36 5.020-6.94 9.020-1.6 4-2.38 8.98-2.38 14.92 0 5.62 0.78 10.46 2.34 14.46 1.6 4.020 3.9 7.1 6.94 9.24zM596.88 277c-2.42 2.52-5.56 4.7-9.4 6.56s-8.44 3.36-13.8 4.52l-7.96 1.7c-2.32 0.48-4.32 1.020-5.98 1.62-1.68 0.6-3.040 1.28-4.12 2.020s-1.86 1.58-2.34 2.52c-0.5 0.94-0.72 1.98-0.66 3.14 0.040 1.42 0.46 2.7 1.28 3.8s2.1 2 3.82 2.62c1.74 0.66 3.94 0.98 6.68 0.98 4.28 0 7.44-0.88 9.54-2.66 2.12-1.78 3.3-4.24 3.54-7.42h25.24c-0.020 6.38-1.6 11.92-4.72 16.68s-7.52 8.46-13.26 11.060c-5.72 2.64-12.52 3.94-20.34 3.94-7.7 0-14.5-1.3-20.44-3.88-5.92-2.6-10.54-6.22-13.9-10.84-3.32-4.62-4.98-10.040-4.94-16.2-0.040-7.6 2.42-13.58 7.38-17.96 4.94-4.38 11.72-7.5 20.32-9.38l9.68-2.080c3.6-0.8 6.46-1.64 8.58-2.54s3.66-1.92 4.58-3.040c0.94-1.12 1.42-2.44 1.44-3.92-0.020-1.58-0.54-3-1.52-4.22-0.98-1.24-2.4-2.2-4.32-2.88-1.88-0.7-4.26-1.040-7.060-1.040-3.34 0-6.24 0.52-8.66 1.56s-4.3 2.58-5.62 4.6-2.080 4.52-2.24 7.48h-25.060c0.040-8.12 1.8-14.78 5.26-20 3.46-5.2 8.34-9.040 14.6-11.54 6.28-2.5 13.64-3.76 22.1-3.76 8.22 0 15.26 1.16 21.14 3.46s10.38 5.68 13.56 10.1c3.16 4.44 4.76 9.84 4.78 16.24-0.020 3.7-0.62 7.12-1.78 10.24-1.16 3.18-2.96 6-5.4 8.52zM685.9 277c-2.44 2.52-5.58 4.7-9.4 6.56-3.84 1.86-8.44 3.36-13.82 4.52l-7.96 1.7c-2.32 0.48-4.3 1.020-5.98 1.62s-3.040 1.28-4.12 2.020c-1.080 0.74-1.84 1.58-2.34 2.52-0.48 0.94-0.72 1.98-0.64 3.14 0.020 1.42 0.46 2.7 1.28 3.8s2.1 2 3.84 2.62c1.72 0.66 3.94 0.98 6.66 0.98 4.28 0 7.46-0.88 9.56-2.66s3.28-4.24 3.52-7.42h25.26c-0.040 6.38-1.62 11.92-4.72 16.68-3.12 4.76-7.54 8.46-13.26 11.060-5.74 2.64-12.52 3.94-20.36 3.94-7.68 0-14.5-1.3-20.42-3.88-5.92-2.6-10.56-6.22-13.9-10.84s-5-10.040-4.96-16.2c-0.040-7.6 2.42-13.58 7.38-17.96s11.74-7.5 20.34-9.38l9.66-2.080c3.62-0.8 6.48-1.64 8.6-2.54s3.64-1.92 4.58-3.040c0.92-1.12 1.4-2.44 1.44-3.92-0.040-1.58-0.54-3-1.52-4.22-0.98-1.24-2.42-2.2-4.32-2.88-1.9-0.7-4.28-1.040-7.080-1.040-3.34 0-6.24 0.52-8.66 1.56-2.4 1.040-4.3 2.58-5.62 4.6s-2.060 4.52-2.24 7.48h-25.040c0.020-8.12 1.78-14.78 5.24-20 3.46-5.2 8.34-9.040 14.6-11.54 6.3-2.5 13.64-3.76 22.1-3.76 8.22 0 15.26 1.16 21.14 3.46s10.4 5.68 13.56 10.1c3.16 4.44 4.76 9.84 4.8 16.24-0.040 3.7-0.64 7.12-1.8 10.24-1.18 3.18-2.96 6-5.4 8.52zM735.66 832h-322.82c-12.86 0-25.2-5.12-34.3-14.22l-127.34-127.46c-9.080-9.1-14.18-21.42-14.18-34.28v-540.7c0-28.36 22.98-51.34 51.34-51.34h447.34c28.36 0 51.34 22.98 51.34 51.34v665.32c-0.040 28.36-23.020 51.34-51.38 51.34zM281.54 656.040c0 1.040 0.42 2.060 1.16 2.8l127.32 127.46c0.74 0.74 1.76 1.16 2.82 1.16h28.52v-139.12c0-8.48-6.9-15.38-15.38-15.38h-144.42v23.080zM742.46 179.26h-460.92v409.16h144.42c33.040 0 59.92 26.88 59.92 59.92v139.12h249.78c3.74 0 6.8-3.060 6.8-6.8v-601.4z" />
<glyph unicode="&#xe940;" glyph-name="sql" d="M454.16 277c-2.44 2.52-5.58 4.7-9.4 6.56-3.84 1.86-8.44 3.36-13.82 4.52l-7.96 1.7c-2.32 0.48-4.3 1.020-5.96 1.62-1.7 0.6-3.060 1.28-4.14 2.020s-1.86 1.58-2.34 2.52c-0.48 0.94-0.72 1.98-0.64 3.14 0.020 1.42 0.46 2.7 1.28 3.8s2.1 2 3.84 2.62c1.72 0.66 3.94 0.98 6.66 0.98 4.28 0 7.44-0.88 9.56-2.66 2.1-1.78 3.28-4.24 3.52-7.42h25.24c-0.040 6.38-1.62 11.92-4.72 16.68-3.12 4.76-7.54 8.46-13.26 11.060-5.74 2.64-12.52 3.94-20.36 3.94-7.68 0-14.5-1.3-20.42-3.88-5.92-2.6-10.56-6.22-13.9-10.84s-5-10.040-4.96-16.2c-0.040-7.6 2.42-13.58 7.38-17.96 4.94-4.38 11.74-7.5 20.34-9.38l9.66-2.080c3.62-0.8 6.48-1.64 8.6-2.54s3.64-1.92 4.58-3.040c0.92-1.12 1.4-2.44 1.44-3.92-0.040-1.58-0.54-3-1.52-4.22-0.98-1.24-2.42-2.2-4.32-2.88-1.9-0.7-4.28-1.040-7.080-1.040-3.34 0-6.24 0.52-8.66 1.56-2.4 1.040-4.3 2.58-5.62 4.6s-2.060 4.52-2.24 7.48h-25.040c0.020-8.12 1.78-14.78 5.24-20 3.46-5.2 8.34-9.040 14.6-11.54 6.3-2.5 13.64-3.76 22.1-3.76 8.22 0 15.26 1.16 21.14 3.46s10.4 5.68 13.56 10.1c3.16 4.44 4.76 9.84 4.8 16.24-0.040 3.7-0.64 7.12-1.8 10.24-1.16 3.18-2.94 6-5.38 8.52zM559.2 250.86c4.22 7.42 6.32 16.54 6.32 27.36s-2.1 19.94-6.32 27.36c-4.2 7.42-9.88 13.040-17.040 16.84-7.14 3.82-15.12 5.72-23.9 5.72-8.86 0-16.86-1.9-23.98-5.72-7.14-3.82-12.8-9.44-17-16.84-4.18-7.42-6.28-16.54-6.28-27.36 0-10.76 2.1-19.84 6.28-27.26 4.2-7.42 9.86-13.040 17-16.9 7.12-3.84 15.12-5.76 23.98-5.76 5.98 0 11.56 0.9 16.76 2.66l7.34-8.54h23.34l-14.78 17.86c3.22 2.98 5.98 6.5 8.28 10.58zM507.24 254.36c-3 2.080-5.26 5.12-6.8 9.1-1.54 4-2.3 8.92-2.3 14.74s0.76 10.72 2.3 14.72c1.54 4 3.8 7.040 6.8 9.12 2.98 2.060 6.66 3.1 11.020 3.1s8.040-1.040 11.020-3.1 5.26-5.12 6.8-9.12c1.52-4 2.3-8.92 2.3-14.72 0-5.84-0.76-10.74-2.3-14.74-0.54-1.38-1.18-2.6-1.88-3.74l-4.74 5.96h-20.5l10.82-14.34c-0.5-0.040-1-0.1-1.52-0.1-4.36 0.020-8.040 1.060-11.020 3.12zM604.26 326.8h-26.4v-97.18h65.68v21.26h-39.28zM735.66 832h-322.82c-12.86 0-25.2-5.12-34.3-14.22l-127.34-127.46c-9.080-9.1-14.18-21.42-14.18-34.28v-540.7c0-28.36 22.98-51.34 51.34-51.34h447.34c28.36 0 51.34 22.98 51.34 51.34v665.32c-0.040 28.36-23.020 51.34-51.38 51.34zM281.54 656.040c0 1.040 0.42 2.060 1.16 2.8l127.32 127.46c0.74 0.74 1.76 1.16 2.82 1.16h28.52v-139.12c0-8.48-6.9-15.38-15.38-15.38h-144.42v23.080zM742.46 179.26h-460.92v409.16h144.42c33.040 0 59.92 26.88 59.92 59.92v139.12h249.78c3.74 0 6.8-3.060 6.8-6.8v-601.4z" />
<glyph unicode="&#xe941;" glyph-name="txt" d="M372.98 305.54h29.24v-75.92h26v75.92h29.22v21.26h-84.46zM557.84 326.8h-29.42l-16.12-28.28h-0.78l-15.94 28.28h-29.6l28.84-48.58-29.8-48.6h30l16.5 28.84h0.78l16.5-28.84h30.18l-30.18 48.6zM566.58 305.54h29.22v-75.92h26v75.92h29.22v21.26h-84.44zM735.66 832h-322.82c-12.86 0-25.2-5.12-34.3-14.22l-127.34-127.46c-9.080-9.1-14.18-21.42-14.18-34.28v-540.7c0-28.36 22.98-51.34 51.34-51.34h447.34c28.36 0 51.34 22.98 51.34 51.34v665.32c-0.040 28.36-23.020 51.34-51.38 51.34zM281.54 656.040c0 1.040 0.42 2.060 1.16 2.8l127.32 127.46c0.74 0.74 1.76 1.16 2.82 1.16h28.52v-139.12c0-8.48-6.9-15.38-15.38-15.38h-144.42v23.080zM742.46 179.26h-460.92v409.16h144.42c33.040 0 59.92 26.88 59.92 59.92v139.12h249.78c3.74 0 6.8-3.060 6.8-6.8v-601.4z" />
<glyph unicode="&#xe942;" glyph-name="mirage-letterhead" horiz-adv-x="4545" d="M2017.938 419.477h-5.089l-99.891 243.454h-145.221v-429.862h114.212v250.201h3.314l95.63-246.887h68.882l95.748 245.23h3.314v-248.544h114.212v429.862h-145.221zM2407.086 662.931h116.697v-429.862h-116.697v429.862zM2992.466 439.005c13.611 21.067 20.475 47.105 20.475 77.877 0 30.535-6.628 56.692-19.883 78.469s-31.956 38.583-55.863 50.182c-23.908 11.599-51.839 17.398-83.795 17.398h-185.579v-429.862h116.697v141.907h40.359l75.51-141.907h126.757l-87.582 160.843c22.251 10.652 40.122 25.328 52.904 45.093zM2784.518 569.668h41.187c13.729 0 25.446-1.894 35.151-5.563s17.161-9.468 22.487-17.161c5.208-7.811 7.811-17.753 7.811-30.062 0-12.19-2.604-22.014-7.811-29.589s-12.782-13.019-22.487-16.451c-9.705-3.432-21.422-5.089-35.151-5.089h-41.187v103.915zM3278.646 662.931l-141.907-429.862h125.929l24.854 82.256h141.788l24.854-82.256h125.929l-141.907 429.862h-159.541zM3313.916 402.67l42.844 141.907h3.314l42.844-141.907h-89.002zM3901.189 390.006h77.877c-0.355-11.954-3.077-22.487-8.521-31.482-5.918-9.468-14.676-16.806-26.511-22.014s-26.63-7.811-44.383-7.811c-20.12 0-37.045 4.734-50.537 14.202-13.611 9.468-23.789 23.197-30.654 41.187-6.865 17.871-10.297 39.412-10.297 64.621 0 24.973 3.551 46.158 10.77 63.793s17.753 31.127 31.482 40.477c13.729 9.35 30.417 14.084 50.064 14.084 9.113 0 17.516-1.065 25.091-3.077s14.321-5.089 20.12-8.995c5.799-4.024 10.652-8.758 14.558-14.439s6.746-12.19 8.64-19.647h117.999c-2.249 21.54-8.521 41.306-18.937 59.414-10.297 18.108-23.908 33.731-40.832 46.868-16.806 13.256-36.216 23.434-58.112 30.654s-45.566 10.77-71.012 10.77c-28.997 0-56.1-4.853-81.428-14.558s-47.697-24.026-66.988-43.081c-19.292-18.937-34.441-42.134-45.211-69.592-10.889-27.458-16.215-58.94-16.215-94.447 0-45.33 8.877-84.387 26.511-117.289 17.753-32.902 42.371-58.23 73.971-75.983s68.409-26.63 110.188-26.63c37.518 0 70.776 7.338 99.773 22.132s51.839 35.98 68.409 63.793c16.57 27.813 24.854 61.307 24.854 100.483v59.65h-190.55v-83.085zM4544.799 568.84v94.092h-309.733v-429.862h308.904v93.973h-192.207v73.971h177.058v93.973h-177.058v73.853zM48.17 437.466c26.63 0 48.17 21.54 48.17 48.17s-21.54 48.17-48.17 48.17-48.17-21.54-48.17-48.17c0-26.63 21.54-48.17 48.17-48.17zM1370.423 437.466c26.63 0 48.17 21.54 48.17 48.17s-21.54 48.17-48.17 48.17c-26.63 0-48.17-21.54-48.17-48.17s21.54-48.17 48.17-48.17zM1370.423 380.656c-25.446 0-46.040-20.594-46.040-46.040 0-31.601-25.683-57.402-57.402-57.402s-57.402 25.683-57.402 57.402v229.607h33.494c25.446 0 46.040 20.594 46.040 46.040s-20.594 46.040-46.040 46.040h-73.735c-32.784 34.678-117.526 116.816-232.092 173.034-44.146 21.659-92.671 39.412-144.392 49.117-27.103 4.971-55.153 7.811-83.676 7.811s-56.573-2.84-83.676-7.811c-51.721-9.705-100.246-27.458-144.392-49.117-114.567-56.218-199.308-138.356-232.092-173.034h-73.735c-25.446 0-46.040-20.594-46.040-46.040s20.594-46.040 46.040-46.040h33.494v-229.607c0-31.601-25.683-57.402-57.402-57.402s-57.402 25.683-57.402 57.402c0 25.446-20.594 46.040-46.040 46.040s-46.040-20.594-46.040-46.040c0-82.374 66.988-149.363 149.363-149.363s149.363 66.988 149.363 149.363v179.662c53.141-47.223 134.924-108.649 233.631-146.167v-209.013c0-31.601-25.683-57.402-57.402-57.402s-57.402 25.683-57.402 57.402c0 25.446-20.594 46.040-46.040 46.040s-46.040-20.594-46.040-46.040c0-82.374 66.988-149.363 149.363-149.363s149.363 66.988 149.363 149.363v183.094c26.866-4.971 54.443-7.93 82.73-7.93s55.982 2.959 82.848 7.93v-183.094c0-82.374 66.988-149.363 149.363-149.363s149.363 66.988 149.363 149.363c0 25.446-20.594 46.040-46.040 46.040s-46.040-20.594-46.040-46.040c0-31.601-25.683-57.402-57.402-57.402s-57.402 25.683-57.402 57.402v209.132c98.826 37.518 180.49 98.944 233.631 146.167v-179.662c0-82.374 66.988-149.363 149.363-149.363s149.363 66.988 149.363 149.363c0.592 25.328-20.002 45.921-45.448 45.921zM631.538 785.546c0 0 0 0 0 0-3.077-8.758-4.971-18.227-4.971-28.168 0-45.685 37.045-82.848 82.848-82.848 45.685 0 82.848 37.045 82.848 82.848 0 9.942-1.775 19.292-4.971 28.168 0 0 0 0 0 0 23.789-5.089 46.987-12.427 69.119-21.304 0.118-2.249 0.237-4.616 0.237-6.865 0-81.191-66.042-147.233-147.233-147.233s-147.233 66.16-147.233 147.351c0 2.367 0.118 4.734 0.237 7.101 22.132 8.64 45.211 15.978 69.119 20.949zM709.296 426.223c-167.826 0-316.006 125.219-376.248 184.041 28.878 28.287 77.995 71.959 140.013 109.596 17.99-114.212 117.052-201.675 236.235-201.675 119.064 0 218.008 87.345 236.117 201.32 62.018-37.518 111.135-81.191 140.131-109.359-60.361-58.822-208.303-183.922-376.248-183.922z" />
<glyph unicode="&#xe943;" glyph-name="te5seract" d="M524.92 809.9l86.56 49.98v-99.98zM420.48 870.2l86.56 50v-99.98zM518.96 920.2l86.56-50-86.56-49.98zM414.52 859.88l86.56-49.98-86.56-50zM414.52 497.98l86.56-49.98-86.56-49.98zM524.92 206.74l86.56 49.98v-99.96zM414.52 256.72l86.56-49.98-86.56-49.98zM420.48 508.32l86.56 49.98v-99.96zM524.92 568.64l86.56 49.98v-99.98zM518.96 558.3l86.56-49.98-86.56-49.98zM420.48 628.94l86.56 50v-99.98zM518.96 678.94l86.56-50-86.56-49.98zM420.48 267.060l86.56 49.98v-99.98zM524.92 327.36l86.56 50v-99.98zM518.96 317.040l86.56-49.98-86.56-50zM420.48 25.8l86.56 49.98v-99.98zM524.92 86.1l86.56 50v-99.98zM518.96 75.78l86.56-49.98-86.56-50zM420.48 146.42l86.56 49.98v-99.96zM518.96 196.4l86.56-49.98-86.56-49.98zM414.52 136.1l86.56-50-86.56-49.98zM211.62 749.58l86.54 49.98v-99.96zM316.060 809.9l86.54 49.98v-99.98zM310.1 799.56l86.54-49.98-86.54-49.98zM205.66 739.24l86.54-49.98-86.54-49.98zM316.060 448l86.54 49.98v-99.96zM316.060 206.74l86.54 49.98v-99.96zM205.66 256.72l86.54-49.98-86.54-49.98zM211.62 628.94l86.54 50v-99.98zM205.66 618.62l86.54-49.98-86.54-50zM211.62 387.68l86.54 49.98v-99.96zM310.1 437.66l86.54-49.98-86.54-49.98zM205.66 377.36l86.54-50-86.54-49.98zM316.060 86.1l86.54 50v-99.98zM211.62 146.42l86.54 49.98v-99.96zM310.1 196.4l86.54-49.98-86.54-49.98zM107.18 689.26l86.54 49.98v-99.96zM107.18 448l86.54 49.98v-99.96zM107.18 206.74l86.54 49.98v-99.96zM107.18 568.64l86.54 49.98v-99.98zM101.22 558.3l86.54-49.98-86.54-49.98zM101.22 678.94l86.54-50-86.54-49.98zM107.18 327.36l86.54 50v-99.98zM101.22 317.040l86.54-49.98-86.54-50zM101.22 437.66l86.54-49.98-86.54-49.98zM629.36 749.58l86.54 49.98v-99.96zM727.84 799.56l86.54-49.98-86.54-49.98zM623.4 859.88l86.54-49.98-86.54-50zM733.8 689.26l86.54 49.98v-99.96zM733.8 206.74l86.54 49.98v-99.96zM623.4 256.72l86.54-49.98-86.54-49.98zM629.36 508.32l86.54 49.98v-99.96zM727.84 558.3l86.54-49.98-86.54-49.98zM623.4 618.62l86.54-49.98-86.54-50zM629.36 267.060l86.54 49.98v-99.98zM623.4 377.36l86.54-50-86.54-49.98zM629.36 146.42l86.54 49.98v-99.96zM727.84 196.4l86.54-49.98-86.54-49.98zM623.4 136.1l86.54-50-86.54-49.98zM832.28 739.24l86.54-49.98-86.54-49.98zM832.28 497.98l86.54-49.98-86.54-49.98zM832.28 256.72l86.54-49.98-86.54-49.98zM838.24 508.32l86.54 49.98v-99.96zM838.24 628.94l86.54 50v-99.98zM832.28 618.62l86.54-49.98-86.54-50zM838.24 267.060l86.54 49.98v-99.98zM838.24 387.68l86.54 49.98v-99.96zM832.28 377.36l86.54-50-86.54-49.98z" />
</font>
</defs>
</svg>
